<svg class="main-svg" xmlns="http://www.w3.org/2000/svg" xmlns:xlink="http://www.w3.org/1999/xlink" width="1400" height="1000" style="" viewBox="0 0 700 500"><rect x="0" y="0" width="700" height="500" style="fill: rgb(11, 16, 32); fill-opacity: 1;"/><defs id="defs-45215a"><g class="clips"><clipPath id="clip45215axyplot" class="plotclip"><rect width="616" height="313"/></clipPath><clipPath class="axesclip" id="clip45215ax"><rect x="60" y="0" width="616" height="500"/></clipPath><clipPath class="axesclip" id="clip45215ay"><rect x="0" y="72" width="700" height="313"/></clipPath><clipPath class="axesclip" id="clip45215axy"><rect x="60" y="72" width="616" height="313"/></clipPath></g><g class="gradients"/><g class="patterns"/></defs><g class="bglayer"><rect class="bg" x="60" y="72" width="616" height="313" style="fill: rgb(17, 24, 39); fill-opacity: 1; stroke-width: 0;"/></g><g class="layer-below"><g class="imagelayer"/><g class="shapelayer"/></g><g class="cartesianlayer"><g class="subplot xy"><g class="layer-subplot"><g class="shapelayer"/><g class="imagelayer"/></g><g class="minor-gridlayer"><g class="x"/><g class="y"/></g><g class="gridlayer"><g class="x"><path class="xgrid crisp" transform="translate(104.59,0)" d="M0,72v313" style="stroke: rgb(39, 52, 73); stroke-opacity: 1; stroke-width: 1px;"/><path class="xgrid crisp" transform="translate(187.76,0)" d="M0,72v313" style="stroke: rgb(39, 52, 73); stroke-opacity: 1; stroke-width: 1px;"/><path class="xgrid crisp" transform="translate(270.93,0)" d="M0,72v313" style="stroke: rgb(39, 52, 73); stroke-opacity: 1; stroke-width: 1px;"/><path class="xgrid crisp" transform="translate(354.1,0)" d="M0,72v313" style="stroke: rgb(39, 52, 73); stroke-opacity: 1; stroke-width: 1px;"/><path class="xgrid crisp" transform="translate(437.27,0)" d="M0,72v313" style="stroke: rgb(39, 52, 73); stroke-opacity: 1; stroke-width: 1px;"/><path class="xgrid crisp" transform="translate(520.44,0)" d="M0,72v313" style="stroke: rgb(39, 52, 73); stroke-opacity: 1; stroke-width: 1px;"/><path class="xgrid crisp" transform="translate(603.61,0)" d="M0,72v313" style="stroke: rgb(39, 52, 73); stroke-opacity: 1; stroke-width: 1px;"/></g><g class="y"><path class="ygrid crisp" transform="translate(0,350.58)" d="M60,0h616" style="stroke: rgb(39, 52, 73); stroke-opacity: 1; stroke-width: 1px;"/><path class="ygrid crisp" transform="translate(0,313.02)" d="M60,0h616" style="stroke: rgb(39, 52, 73); stroke-opacity: 1; stroke-width: 1px;"/><path class="ygrid crisp" transform="translate(0,275.45)" d="M60,0h616" style="stroke: rgb(39, 52, 73); stroke-opacity: 1; stroke-width: 1px;"/><path class="ygrid crisp" transform="translate(0,237.89)" d="M60,0h616" style="stroke: rgb(39, 52, 73); stroke-opacity: 1; stroke-width: 1px;"/><path class="ygrid crisp" transform="translate(0,200.33)" d="M60,0h616" style="stroke: rgb(39, 52, 73); stroke-opacity: 1; stroke-width: 1px;"/><path class="ygrid crisp" transform="translate(0,162.76999999999998)" d="M60,0h616" style="stroke: rgb(39, 52, 73); stroke-opacity: 1; stroke-width: 1px;"/><path class="ygrid crisp" transform="translate(0,125.21000000000001)" d="M60,0h616" style="stroke: rgb(39, 52, 73); stroke-opacity: 1; stroke-width: 1px;"/><path class="ygrid crisp" transform="translate(0,87.65)" d="M60,0h616" style="stroke: rgb(39, 52, 73); stroke-opacity: 1; stroke-width: 1px;"/></g></g><g class="zerolinelayer"/><g class="layer-between"><g class="shapelayer"/><g class="imagelayer"/></g><path class="xlines-below"/><path class="ylines-below"/><g class="overlines-below"/><g class="xaxislayer-below"/><g class="yaxislayer-below"/><g class="overaxes-below"/><g class="overplot"><g class="xy" transform="translate(60,72)" clip-path="url(#clip45215axyplot)"><g class="boxlayer mlayer"><g class="trace boxes" style="opacity: 1;"><path class="box" d="M17.66,155.35H27.85M17.66,157.48H27.85V139.25H17.66ZM22.75,157.48V158.19M22.75,139.25V133.89M20.21,158.19H25.3M20.21,133.89H25.3" style="vector-effect: none; stroke-width: 2px; stroke: rgb(102, 194, 165); stroke-opacity: 1; fill: rgb(102, 194, 165); fill-opacity: 0.5;"/><path class="box" d="M100.83,165.11H111.02M100.83,178.72H111.02V137.4H100.83ZM105.92,178.72V183.26M105.92,137.4V128.16M103.38,183.26H108.47M103.38,128.16H108.47" style="vector-effect: none; stroke-width: 2px; stroke: rgb(102, 194, 165); stroke-opacity: 1; fill: rgb(102, 194, 165); fill-opacity: 0.5;"/><path class="box" d="M184,152.08H194.19M184,154.53H194.19V133.14H184ZM189.1,154.53V155.35M189.1,133.14V126.83M186.55,155.35H191.64M186.55,126.83H191.64" style="vector-effect: none; stroke-width: 2px; stroke: rgb(102, 194, 165); stroke-opacity: 1; fill: rgb(102, 194, 165); fill-opacity: 0.5;"/><path class="box" d="M267.17,193.77H277.36M267.17,271.46H277.36V170.11H267.17ZM272.27,271.46V297.35M272.27,170.11V162.22M269.72,297.35H274.81M269.72,162.22H274.81" style="vector-effect: none; stroke-width: 2px; stroke: rgb(102, 194, 165); stroke-opacity: 1; fill: rgb(102, 194, 165); fill-opacity: 0.5;"/><path class="box" d="M350.34,173.57H360.53M350.34,175.46H360.53V141.62H350.34ZM355.44,175.46V176.1M355.44,141.62V130.98M352.89,176.1H357.99M352.89,130.98H357.99" style="vector-effect: none; stroke-width: 2px; stroke: rgb(102, 194, 165); stroke-opacity: 1; fill: rgb(102, 194, 165); fill-opacity: 0.5;"/><path class="box" d="M433.52,128.72H443.7M433.52,145.17H443.7V85.72H433.52ZM438.61,145.17V150.65M438.61,85.72V71.38M436.06,150.65H441.16M436.06,71.38H441.16" style="vector-effect: none; stroke-width: 2px; stroke: rgb(102, 194, 165); stroke-opacity: 1; fill: rgb(102, 194, 165); fill-opacity: 0.5;"/><path class="box" d="M516.69,129.56H526.88M516.69,206.2H526.88V110.71H516.69ZM521.78,206.2V231.75M521.78,110.71V104.43M519.23,231.75H524.33M519.23,104.43H524.33" style="vector-effect: none; stroke-width: 2px; stroke: rgb(102, 194, 165); stroke-opacity: 1; fill: rgb(102, 194, 165); fill-opacity: 0.5;"/><g class="points"><path class="point" transform="translate(15.9,158.19)" d="M3,0A3,3 0 1,1 0,-3A3,3 0 0,1 3,0Z" style="opacity: 1; stroke-width: 0px; fill: rgb(102, 194, 165); fill-opacity: 1;"/><path class="point" transform="translate(14.14,155.35)" d="M3,0A3,3 0 1,1 0,-3A3,3 0 0,1 3,0Z" style="opacity: 1; stroke-width: 0px; fill: rgb(102, 194, 165); fill-opacity: 1;"/><path class="point" transform="translate(16.3,133.89)" d="M3,0A3,3 0 1,1 0,-3A3,3 0 0,1 3,0Z" style="opacity: 1; stroke-width: 0px; fill: rgb(102, 194, 165); fill-opacity: 1;"/></g><g class="points"><path class="point" transform="translate(96.99,183.26)" d="M3,0A3,3 0 1,1 0,-3A3,3 0 0,1 3,0Z" style="opacity: 1; stroke-width: 0px; fill: rgb(102, 194, 165); fill-opacity: 1;"/><path class="point" transform="translate(97.91,165.11)" d="M3,0A3,3 0 1,1 0,-3A3,3 0 0,1 3,0Z" style="opacity: 1; stroke-width: 0px; fill: rgb(102, 194, 165); fill-opacity: 1;"/><path class="point" transform="translate(99.09,128.16)" d="M3,0A3,3 0 1,1 0,-3A3,3 0 0,1 3,0Z" style="opacity: 1; stroke-width: 0px; fill: rgb(102, 194, 165); fill-opacity: 1;"/></g><g class="points"><path class="point" transform="translate(181.4,155.35)" d="M3,0A3,3 0 1,1 0,-3A3,3 0 0,1 3,0Z" style="opacity: 1; stroke-width: 0px; fill: rgb(102, 194, 165); fill-opacity: 1;"/><path class="point" transform="translate(181.9,152.08)" d="M3,0A3,3 0 1,1 0,-3A3,3 0 0,1 3,0Z" style="opacity: 1; stroke-width: 0px; fill: rgb(102, 194, 165); fill-opacity: 1;"/><path class="point" transform="translate(180.97,126.83)" d="M3,0A3,3 0 1,1 0,-3A3,3 0 0,1 3,0Z" style="opacity: 1; stroke-width: 0px; fill: rgb(102, 194, 165); fill-opacity: 1;"/></g><g class="points"><path class="point" transform="translate(263.51,297.35)" d="M3,0A3,3 0 1,1 0,-3A3,3 0 0,1 3,0Z" style="opacity: 1; stroke-width: 0px; fill: rgb(102, 194, 165); fill-opacity: 1;"/><path class="point" transform="translate(265.03,193.77)" d="M3,0A3,3 0 1,1 0,-3A3,3 0 0,1 3,0Z" style="opacity: 1; stroke-width: 0px; fill: rgb(102, 194, 165); fill-opacity: 1;"/><path class="point" transform="translate(264.12,162.22)" d="M3,0A3,3 0 1,1 0,-3A3,3 0 0,1 3,0Z" style="opacity: 1; stroke-width: 0px; fill: rgb(102, 194, 165); fill-opacity: 1;"/></g><g class="points"><path class="point" transform="translate(348.77,176.1)" d="M3,0A3,3 0 1,1 0,-3A3,3 0 0,1 3,0Z" style="opacity: 1; stroke-width: 0px; fill: rgb(102, 194, 165); fill-opacity: 1;"/><path class="point" transform="translate(346.31,173.57)" d="M3,0A3,3 0 1,1 0,-3A3,3 0 0,1 3,0Z" style="opacity: 1; stroke-width: 0px; fill: rgb(102, 194, 165); fill-opacity: 1;"/><path class="point" transform="translate(346.91,130.98)" d="M3,0A3,3 0 1,1 0,-3A3,3 0 0,1 3,0Z" style="opacity: 1; stroke-width: 0px; fill: rgb(102, 194, 165); fill-opacity: 1;"/></g><g class="points"><path class="point" transform="translate(432.32,150.65)" d="M3,0A3,3 0 1,1 0,-3A3,3 0 0,1 3,0Z" style="opacity: 1; stroke-width: 0px; fill: rgb(102, 194, 165); fill-opacity: 1;"/><path class="point" transform="translate(430.59,128.72)" d="M3,0A3,3 0 1,1 0,-3A3,3 0 0,1 3,0Z" style="opacity: 1; stroke-width: 0px; fill: rgb(102, 194, 165); fill-opacity: 1;"/><path class="point" transform="translate(429.66,71.38)" d="M3,0A3,3 0 1,1 0,-3A3,3 0 0,1 3,0Z" style="opacity: 1; stroke-width: 0px; fill: rgb(102, 194, 165); fill-opacity: 1;"/></g><g class="points"><path class="point" transform="translate(513.64,231.75)" d="M3,0A3,3 0 1,1 0,-3A3,3 0 0,1 3,0Z" style="opacity: 1; stroke-width: 0px; fill: rgb(102, 194, 165); fill-opacity: 1;"/><path class="point" transform="translate(514.11,129.56)" d="M3,0A3,3 0 1,1 0,-3A3,3 0 0,1 3,0Z" style="opacity: 1; stroke-width: 0px; fill: rgb(102, 194, 165); fill-opacity: 1;"/><path class="point" transform="translate(514.83,104.43)" d="M3,0A3,3 0 1,1 0,-3A3,3 0 0,1 3,0Z" style="opacity: 1; stroke-width: 0px; fill: rgb(102, 194, 165); fill-opacity: 1;"/></g></g><g class="trace boxes" style="opacity: 1;"><path class="box" d="M32.21,195.83H42.4M32.21,231.83H42.4V144.83H32.21ZM37.31,231.83V243.83M37.31,144.83V127.83M34.76,243.83H39.86M34.76,127.83H39.86" style="vector-effect: none; stroke-width: 2px; stroke: rgb(252, 141, 98); stroke-opacity: 1; fill: rgb(252, 141, 98); fill-opacity: 0.5;"/><path class="box" d="M115.39,199.18H125.57M115.39,219.45H125.57V162.57H115.39ZM120.48,219.45V226.21M120.48,162.57V150.36M117.93,226.21H123.03M117.93,150.36H123.03" style="vector-effect: none; stroke-width: 2px; stroke: rgb(252, 141, 98); stroke-opacity: 1; fill: rgb(252, 141, 98); fill-opacity: 0.5;"/><path class="box" d="M198.56,193.12H208.75M198.56,231.15H208.75V142.62H198.56ZM203.65,231.15V243.83M203.65,142.62V125.79M201.1,243.83H206.2M201.1,125.79H206.2" style="vector-effect: none; stroke-width: 2px; stroke: rgb(252, 141, 98); stroke-opacity: 1; fill: rgb(252, 141, 98); fill-opacity: 0.5;"/><path class="box" d="M281.73,200.48H291.92M281.73,215.78H291.92V199.45H281.73ZM286.82,215.78V220.88M286.82,199.45V199.11M284.28,220.88H289.37M284.28,199.11H289.37" style="vector-effect: none; stroke-width: 2px; stroke: rgb(252, 141, 98); stroke-opacity: 1; fill: rgb(252, 141, 98); fill-opacity: 0.5;"/><path class="box" d="M364.9,213.99H375.09M364.9,236.15H375.09V212.99H364.9ZM369.99,236.15V243.83M369.99,212.99V212.94M367.45,243.83H372.54M367.45,212.94H372.54" style="vector-effect: none; stroke-width: 2px; stroke: rgb(252, 141, 98); stroke-opacity: 1; fill: rgb(252, 141, 98); fill-opacity: 0.5;"/><path class="box" d="M448.07,222.92H458.26M448.07,238.6H458.26V182.49H448.07ZM453.17,238.6V243.83M453.17,182.49V169.02M450.62,243.83H455.71M450.62,169.02H455.71" style="vector-effect: none; stroke-width: 2px; stroke: rgb(252, 141, 98); stroke-opacity: 1; fill: rgb(252, 141, 98); fill-opacity: 0.5;"/><path class="box" d="M531.24,175.99H541.43M531.24,227.26H541.43V141.66H531.24ZM536.34,227.26V244.35M536.34,141.66V130.22M533.79,244.35H538.88M533.79,130.22H538.88" style="vector-effect: none; stroke-width: 2px; stroke: rgb(252, 141, 98); stroke-opacity: 1; fill: rgb(252, 141, 98); fill-opacity: 0.5;"/><g class="points"><path class="point" transform="translate(30.46,243.83)" d="M3,0A3,3 0 1,1 0,-3A3,3 0 0,1 3,0Z" style="opacity: 1; stroke-width: 0px; fill: rgb(252, 141, 98); fill-opacity: 1;"/><path class="point" transform="translate(28.69,195.83)" d="M3,0A3,3 0 1,1 0,-3A3,3 0 0,1 3,0Z" style="opacity: 1; stroke-width: 0px; fill: rgb(252, 141, 98); fill-opacity: 1;"/><path class="point" transform="translate(30.85,127.83)" d="M3,0A3,3 0 1,1 0,-3A3,3 0 0,1 3,0Z" style="opacity: 1; stroke-width: 0px; fill: rgb(252, 141, 98); fill-opacity: 1;"/></g><g class="points"><path class="point" transform="translate(111.55,226.21)" d="M3,0A3,3 0 1,1 0,-3A3,3 0 0,1 3,0Z" style="opacity: 1; stroke-width: 0px; fill: rgb(252, 141, 98); fill-opacity: 1;"/><path class="point" transform="translate(112.46,199.18)" d="M3,0A3,3 0 1,1 0,-3A3,3 0 0,1 3,0Z" style="opacity: 1; stroke-width: 0px; fill: rgb(252, 141, 98); fill-opacity: 1;"/><path class="point" transform="translate(113.64,150.36)" d="M3,0A3,3 0 1,1 0,-3A3,3 0 0,1 3,0Z" style="opacity: 1; stroke-width: 0px; fill: rgb(252, 141, 98); fill-opacity: 1;"/></g><g class="points"><path class="point" transform="translate(195.95,243.83)" d="M3,0A3,3 0 1,1 0,-3A3,3 0 0,1 3,0Z" style="opacity: 1; stroke-width: 0px; fill: rgb(252, 141, 98); fill-opacity: 1;"/><path class="point" transform="translate(196.45,193.12)" d="M3,0A3,3 0 1,1 0,-3A3,3 0 0,1 3,0Z" style="opacity: 1; stroke-width: 0px; fill: rgb(252, 141, 98); fill-opacity: 1;"/><path class="point" transform="translate(195.52,125.79)" d="M3,0A3,3 0 1,1 0,-3A3,3 0 0,1 3,0Z" style="opacity: 1; stroke-width: 0px; fill: rgb(252, 141, 98); fill-opacity: 1;"/></g><g class="points"><path class="point" transform="translate(278.06,220.88)" d="M3,0A3,3 0 1,1 0,-3A3,3 0 0,1 3,0Z" style="opacity: 1; stroke-width: 0px; fill: rgb(252, 141, 98); fill-opacity: 1;"/><path class="point" transform="translate(279.59,200.48)" d="M3,0A3,3 0 1,1 0,-3A3,3 0 0,1 3,0Z" style="opacity: 1; stroke-width: 0px; fill: rgb(252, 141, 98); fill-opacity: 1;"/><path class="point" transform="translate(278.68,199.11)" d="M3,0A3,3 0 1,1 0,-3A3,3 0 0,1 3,0Z" style="opacity: 1; stroke-width: 0px; fill: rgb(252, 141, 98); fill-opacity: 1;"/></g><g class="points"><path class="point" transform="translate(363.32,243.83)" d="M3,0A3,3 0 1,1 0,-3A3,3 0 0,1 3,0Z" style="opacity: 1; stroke-width: 0px; fill: rgb(252, 141, 98); fill-opacity: 1;"/><path class="point" transform="translate(360.86,213.11)" d="M3,0A3,3 0 1,1 0,-3A3,3 0 0,1 3,0Z" style="opacity: 1; stroke-width: 0px; fill: rgb(252, 141, 98); fill-opacity: 1;"/><path class="point" transform="translate(361.47,212.94)" d="M3,0A3,3 0 1,1 0,-3A3,3 0 0,1 3,0Z" style="opacity: 1; stroke-width: 0px; fill: rgb(252, 141, 98); fill-opacity: 1;"/></g><g class="points"><path class="point" transform="translate(446.88,243.83)" d="M3,0A3,3 0 1,1 0,-3A3,3 0 0,1 3,0Z" style="opacity: 1; stroke-width: 0px; fill: rgb(252, 141, 98); fill-opacity: 1;"/><path class="point" transform="translate(445.14,222.92)" d="M3,0A3,3 0 1,1 0,-3A3,3 0 0,1 3,0Z" style="opacity: 1; stroke-width: 0px; fill: rgb(252, 141, 98); fill-opacity: 1;"/><path class="point" transform="translate(444.21,169.02)" d="M3,0A3,3 0 1,1 0,-3A3,3 0 0,1 3,0Z" style="opacity: 1; stroke-width: 0px; fill: rgb(252, 141, 98); fill-opacity: 1;"/></g><g class="points"><path class="point" transform="translate(528.19,244.35)" d="M3,0A3,3 0 1,1 0,-3A3,3 0 0,1 3,0Z" style="opacity: 1; stroke-width: 0px; fill: rgb(252, 141, 98); fill-opacity: 1;"/><path class="point" transform="translate(528.66,175.99)" d="M3,0A3,3 0 1,1 0,-3A3,3 0 0,1 3,0Z" style="opacity: 1; stroke-width: 0px; fill: rgb(252, 141, 98); fill-opacity: 1;"/><path class="point" transform="translate(529.38,130.22)" d="M3,0A3,3 0 1,1 0,-3A3,3 0 0,1 3,0Z" style="opacity: 1; stroke-width: 0px; fill: rgb(252, 141, 98); fill-opacity: 1;"/></g></g><g class="trace boxes" style="opacity: 1;"><path class="box" d="M46.77,136.39H56.96M46.77,186.29H56.96V88.49H46.77ZM51.86,186.29V202.92M51.86,88.49V72.52M49.32,202.92H54.41M49.32,72.52H54.41" style="vector-effect: none; stroke-width: 2px; stroke: rgb(141, 160, 203); stroke-opacity: 1; fill: rgb(141, 160, 203); fill-opacity: 0.5;"/><path class="box" d="M129.94,181.66H140.13M129.94,202.82H140.13V136.55H129.94ZM135.03,202.82V209.88M135.03,136.55V121.52M132.49,209.88H137.58M132.49,121.52H137.58" style="vector-effect: none; stroke-width: 2px; stroke: rgb(141, 160, 203); stroke-opacity: 1; fill: rgb(141, 160, 203); fill-opacity: 0.5;"/><path class="box" d="M213.11,146.78H223.3M213.11,188.89H223.3V129.27H213.11ZM218.21,188.89V202.92M218.21,129.27V123.43M215.66,202.92H220.75M215.66,123.43H220.75" style="vector-effect: none; stroke-width: 2px; stroke: rgb(141, 160, 203); stroke-opacity: 1; fill: rgb(141, 160, 203); fill-opacity: 0.5;"/><path class="box" d="M296.28,190.83H306.47M296.28,207.65H306.47V149.59H296.28ZM301.38,207.65V213.26M301.38,149.59V135.85M298.83,213.26H303.92M298.83,135.85H303.92" style="vector-effect: none; stroke-width: 2px; stroke: rgb(141, 160, 203); stroke-opacity: 1; fill: rgb(141, 160, 203); fill-opacity: 0.5;"/><path class="box" d="M379.45,212.08H389.64M379.45,219.53H389.64V135.12H379.45ZM384.55,219.53V222.02M384.55,135.12V109.46M382,222.02H387.1M382,109.46H387.1" style="vector-effect: none; stroke-width: 2px; stroke: rgb(141, 160, 203); stroke-opacity: 1; fill: rgb(141, 160, 203); fill-opacity: 0.5;"/><path class="box" d="M462.63,131.63H472.81M462.63,185.1H472.81V91.12H462.63ZM467.72,185.1V202.92M467.72,91.12V77.62M465.17,202.92H470.27M465.17,77.62H470.27" style="vector-effect: none; stroke-width: 2px; stroke: rgb(141, 160, 203); stroke-opacity: 1; fill: rgb(141, 160, 203); fill-opacity: 0.5;"/><path class="box" d="M545.8,153.68H555.99M545.8,190.61H555.99V144.03H545.8ZM550.89,190.61V202.92M550.89,144.03V140.82M548.34,202.92H553.44M548.34,140.82H553.44" style="vector-effect: none; stroke-width: 2px; stroke: rgb(141, 160, 203); stroke-opacity: 1; fill: rgb(141, 160, 203); fill-opacity: 0.5;"/><g class="points"><path class="point" transform="translate(45.01,202.92)" d="M3,0A3,3 0 1,1 0,-3A3,3 0 0,1 3,0Z" style="opacity: 1; stroke-width: 0px; fill: rgb(141, 160, 203); fill-opacity: 1;"/><path class="point" transform="translate(43.25,136.39)" d="M3,0A3,3 0 1,1 0,-3A3,3 0 0,1 3,0Z" style="opacity: 1; stroke-width: 0px; fill: rgb(141, 160, 203); fill-opacity: 1;"/><path class="point" transform="translate(45.41,72.52)" d="M3,0A3,3 0 1,1 0,-3A3,3 0 0,1 3,0Z" style="opacity: 1; stroke-width: 0px; fill: rgb(141, 160, 203); fill-opacity: 1;"/></g><g class="points"><path class="point" transform="translate(126.1,209.88)" d="M3,0A3,3 0 1,1 0,-3A3,3 0 0,1 3,0Z" style="opacity: 1; stroke-width: 0px; fill: rgb(141, 160, 203); fill-opacity: 1;"/><path class="point" transform="translate(127.02,181.66)" d="M3,0A3,3 0 1,1 0,-3A3,3 0 0,1 3,0Z" style="opacity: 1; stroke-width: 0px; fill: rgb(141, 160, 203); fill-opacity: 1;"/><path class="point" transform="translate(128.2,121.52)" d="M3,0A3,3 0 1,1 0,-3A3,3 0 0,1 3,0Z" style="opacity: 1; stroke-width: 0px; fill: rgb(141, 160, 203); fill-opacity: 1;"/></g><g class="points"><path class="point" transform="translate(210.51,202.92)" d="M3,0A3,3 0 1,1 0,-3A3,3 0 0,1 3,0Z" style="opacity: 1; stroke-width: 0px; fill: rgb(141, 160, 203); fill-opacity: 1;"/><path class="point" transform="translate(211.01,146.78)" d="M3,0A3,3 0 1,1 0,-3A3,3 0 0,1 3,0Z" style="opacity: 1; stroke-width: 0px; fill: rgb(141, 160, 203); fill-opacity: 1;"/><path class="point" transform="translate(210.08,123.43)" d="M3,0A3,3 0 1,1 0,-3A3,3 0 0,1 3,0Z" style="opacity: 1; stroke-width: 0px; fill: rgb(141, 160, 203); fill-opacity: 1;"/></g><g class="points"><path class="point" transform="translate(292.62,213.26)" d="M3,0A3,3 0 1,1 0,-3A3,3 0 0,1 3,0Z" style="opacity: 1; stroke-width: 0px; fill: rgb(141, 160, 203); fill-opacity: 1;"/><path class="point" transform="translate(294.14,190.83)" d="M3,0A3,3 0 1,1 0,-3A3,3 0 0,1 3,0Z" style="opacity: 1; stroke-width: 0px; fill: rgb(141, 160, 203); fill-opacity: 1;"/><path class="point" transform="translate(293.23,135.85)" d="M3,0A3,3 0 1,1 0,-3A3,3 0 0,1 3,0Z" style="opacity: 1; stroke-width: 0px; fill: rgb(141, 160, 203); fill-opacity: 1;"/></g><g class="points"><path class="point" transform="translate(377.88,222.02)" d="M3,0A3,3 0 1,1 0,-3A3,3 0 0,1 3,0Z" style="opacity: 1; stroke-width: 0px; fill: rgb(141, 160, 203); fill-opacity: 1;"/><path class="point" transform="translate(375.42,212.08)" d="M3,0A3,3 0 1,1 0,-3A3,3 0 0,1 3,0Z" style="opacity: 1; stroke-width: 0px; fill: rgb(141, 160, 203); fill-opacity: 1;"/><path class="point" transform="translate(376.02,109.46)" d="M3,0A3,3 0 1,1 0,-3A3,3 0 0,1 3,0Z" style="opacity: 1; stroke-width: 0px; fill: rgb(141, 160, 203); fill-opacity: 1;"/></g><g class="points"><path class="point" transform="translate(461.43,202.92)" d="M3,0A3,3 0 1,1 0,-3A3,3 0 0,1 3,0Z" style="opacity: 1; stroke-width: 0px; fill: rgb(141, 160, 203); fill-opacity: 1;"/><path class="point" transform="translate(459.7,131.63)" d="M3,0A3,3 0 1,1 0,-3A3,3 0 0,1 3,0Z" style="opacity: 1; stroke-width: 0px; fill: rgb(141, 160, 203); fill-opacity: 1;"/><path class="point" transform="translate(458.77,77.62)" d="M3,0A3,3 0 1,1 0,-3A3,3 0 0,1 3,0Z" style="opacity: 1; stroke-width: 0px; fill: rgb(141, 160, 203); fill-opacity: 1;"/></g><g class="points"><path class="point" transform="translate(542.75,202.92)" d="M3,0A3,3 0 1,1 0,-3A3,3 0 0,1 3,0Z" style="opacity: 1; stroke-width: 0px; fill: rgb(141, 160, 203); fill-opacity: 1;"/><path class="point" transform="translate(543.22,153.68)" d="M3,0A3,3 0 1,1 0,-3A3,3 0 0,1 3,0Z" style="opacity: 1; stroke-width: 0px; fill: rgb(141, 160, 203); fill-opacity: 1;"/><path class="point" transform="translate(543.94,140.82)" d="M3,0A3,3 0 1,1 0,-3A3,3 0 0,1 3,0Z" style="opacity: 1; stroke-width: 0px; fill: rgb(141, 160, 203); fill-opacity: 1;"/></g></g><g class="trace boxes" style="opacity: 1;"><path class="box" d="M144.5,237.21H154.68M144.5,250.41H154.68V118.54H144.5ZM149.59,250.41V254.81M149.59,118.54V78.98M147.04,254.81H152.14M147.04,78.98H152.14" style="vector-effect: none; stroke-width: 2px; stroke: rgb(231, 138, 195); stroke-opacity: 1; fill: rgb(231, 138, 195); fill-opacity: 0.5;"/><path class="box" d="M227.67,199.71H237.86M227.67,203.18H237.86V127.9H227.67ZM232.76,203.18V204.34M232.76,127.9V103.96M230.21,204.34H235.31M230.21,103.96H235.31" style="vector-effect: none; stroke-width: 2px; stroke: rgb(231, 138, 195); stroke-opacity: 1; fill: rgb(231, 138, 195); fill-opacity: 0.5;"/><path class="box" d="M310.84,199.12H321.03M310.84,257.47H321.03V71.77H310.84ZM315.93,257.47V276.92M315.93,71.77V29.33M313.39,276.92H318.48M313.39,29.33H318.48" style="vector-effect: none; stroke-width: 2px; stroke: rgb(231, 138, 195); stroke-opacity: 1; fill: rgb(231, 138, 195); fill-opacity: 0.5;"/><path class="box" d="M394.01,202.92H404.2M394.01,232.43H404.2V199.02H394.01ZM399.1,232.43V242.27M399.1,199.02V197.72M396.56,242.27H401.65M396.56,197.72H401.65" style="vector-effect: none; stroke-width: 2px; stroke: rgb(231, 138, 195); stroke-opacity: 1; fill: rgb(231, 138, 195); fill-opacity: 0.5;"/><path class="box" d="M477.18,231.05H487.37M477.18,233.11H487.37V150.32H477.18ZM482.28,233.11V233.8M482.28,150.32V123.42M479.73,233.8H484.82M479.73,123.42H484.82" style="vector-effect: none; stroke-width: 2px; stroke: rgb(231, 138, 195); stroke-opacity: 1; fill: rgb(231, 138, 195); fill-opacity: 0.5;"/><path class="box" d="M560.35,48.98H570.54M560.35,122.76H570.54V23.98H560.35ZM565.45,122.76V147.35M565.45,23.98V15.65M562.9,147.35H567.99M562.9,15.65H567.99" style="vector-effect: none; stroke-width: 2px; stroke: rgb(231, 138, 195); stroke-opacity: 1; fill: rgb(231, 138, 195); fill-opacity: 0.5;"/><g class="points"><path class="point" transform="translate(142.74,254.81)" d="M3,0A3,3 0 1,1 0,-3A3,3 0 0,1 3,0Z" style="opacity: 1; stroke-width: 0px; fill: rgb(231, 138, 195); fill-opacity: 1;"/><path class="point" transform="translate(140.97,237.21)" d="M3,0A3,3 0 1,1 0,-3A3,3 0 0,1 3,0Z" style="opacity: 1; stroke-width: 0px; fill: rgb(231, 138, 195); fill-opacity: 1;"/><path class="point" transform="translate(143.13,78.98)" d="M3,0A3,3 0 1,1 0,-3A3,3 0 0,1 3,0Z" style="opacity: 1; stroke-width: 0px; fill: rgb(231, 138, 195); fill-opacity: 1;"/></g><g class="points"><path class="point" transform="translate(223.83,204.34)" d="M3,0A3,3 0 1,1 0,-3A3,3 0 0,1 3,0Z" style="opacity: 1; stroke-width: 0px; fill: rgb(231, 138, 195); fill-opacity: 1;"/><path class="point" transform="translate(224.74,199.71)" d="M3,0A3,3 0 1,1 0,-3A3,3 0 0,1 3,0Z" style="opacity: 1; stroke-width: 0px; fill: rgb(231, 138, 195); fill-opacity: 1;"/><path class="point" transform="translate(225.92,103.96)" d="M3,0A3,3 0 1,1 0,-3A3,3 0 0,1 3,0Z" style="opacity: 1; stroke-width: 0px; fill: rgb(231, 138, 195); fill-opacity: 1;"/></g><g class="points"><path class="point" transform="translate(308.23,276.92)" d="M3,0A3,3 0 1,1 0,-3A3,3 0 0,1 3,0Z" style="opacity: 1; stroke-width: 0px; fill: rgb(231, 138, 195); fill-opacity: 1;"/><path class="point" transform="translate(308.73,199.12)" d="M3,0A3,3 0 1,1 0,-3A3,3 0 0,1 3,0Z" style="opacity: 1; stroke-width: 0px; fill: rgb(231, 138, 195); fill-opacity: 1;"/><path class="point" transform="translate(307.8,29.33)" d="M3,0A3,3 0 1,1 0,-3A3,3 0 0,1 3,0Z" style="opacity: 1; stroke-width: 0px; fill: rgb(231, 138, 195); fill-opacity: 1;"/></g><g class="points"><path class="point" transform="translate(390.34,242.27)" d="M3,0A3,3 0 1,1 0,-3A3,3 0 0,1 3,0Z" style="opacity: 1; stroke-width: 0px; fill: rgb(231, 138, 195); fill-opacity: 1;"/><path class="point" transform="translate(391.87,202.92)" d="M3,0A3,3 0 1,1 0,-3A3,3 0 0,1 3,0Z" style="opacity: 1; stroke-width: 0px; fill: rgb(231, 138, 195); fill-opacity: 1;"/><path class="point" transform="translate(390.96,197.72)" d="M3,0A3,3 0 1,1 0,-3A3,3 0 0,1 3,0Z" style="opacity: 1; stroke-width: 0px; fill: rgb(231, 138, 195); fill-opacity: 1;"/></g><g class="points"><path class="point" transform="translate(475.6,233.8)" d="M3,0A3,3 0 1,1 0,-3A3,3 0 0,1 3,0Z" style="opacity: 1; stroke-width: 0px; fill: rgb(231, 138, 195); fill-opacity: 1;"/><path class="point" transform="translate(473.15,231.05)" d="M3,0A3,3 0 1,1 0,-3A3,3 0 0,1 3,0Z" style="opacity: 1; stroke-width: 0px; fill: rgb(231, 138, 195); fill-opacity: 1;"/><path class="point" transform="translate(473.75,123.42)" d="M3,0A3,3 0 1,1 0,-3A3,3 0 0,1 3,0Z" style="opacity: 1; stroke-width: 0px; fill: rgb(231, 138, 195); fill-opacity: 1;"/></g><g class="points"><path class="point" transform="translate(559.16,147.35)" d="M3,0A3,3 0 1,1 0,-3A3,3 0 0,1 3,0Z" style="opacity: 1; stroke-width: 0px; fill: rgb(231, 138, 195); fill-opacity: 1;"/><path class="point" transform="translate(557.42,48.98)" d="M3,0A3,3 0 1,1 0,-3A3,3 0 0,1 3,0Z" style="opacity: 1; stroke-width: 0px; fill: rgb(231, 138, 195); fill-opacity: 1;"/><path class="point" transform="translate(556.49,15.65)" d="M3,0A3,3 0 1,1 0,-3A3,3 0 0,1 3,0Z" style="opacity: 1; stroke-width: 0px; fill: rgb(231, 138, 195); fill-opacity: 1;"/></g></g></g></g></g><g class="zerolinelayer-above"/><path class="xlines-above crisp" d="M0,0" style="fill: none;"/><path class="ylines-above crisp" d="M0,0" style="fill: none;"/><g class="overlines-above"/><g class="xaxislayer-above"><g class="xtick"><text text-anchor="start" x="0" y="398" transform="translate(104.59,0) rotate(29.999999999999996,0,392)" style="font-family: Inter, 'Segoe UI', Arial, sans-serif; font-size: 12px; fill: rgb(229, 231, 235); fill-opacity: 1; white-space: pre;">deepseekr1-qwen14</text></g><g class="xtick"><text text-anchor="start" x="0" y="398" transform="translate(187.76,0) rotate(29.999999999999996,0,392)" style="font-family: Inter, 'Segoe UI', Arial, sans-serif; font-size: 12px; fill: rgb(229, 231, 235); fill-opacity: 1; white-space: pre;">gemma3-4b</text></g><g class="xtick"><text text-anchor="start" x="0" y="398" transform="translate(270.93,0) rotate(29.999999999999996,0,392)" style="font-family: Inter, 'Segoe UI', Arial, sans-serif; font-size: 12px; fill: rgb(229, 231, 235); fill-opacity: 1; white-space: pre;">gpt-oss-20b-MXFP4-Q8</text></g><g class="xtick"><text text-anchor="start" x="0" y="398" transform="translate(354.1,0) rotate(29.999999999999996,0,392)" style="font-family: Inter, 'Segoe UI', Arial, sans-serif; font-size: 12px; fill: rgb(229, 231, 235); fill-opacity: 1; white-space: pre;">llama3.2-1b</text></g><g class="xtick"><text text-anchor="start" x="0" y="398" transform="translate(437.27,0) rotate(29.999999999999996,0,392)" style="font-family: Inter, 'Segoe UI', Arial, sans-serif; font-size: 12px; fill: rgb(229, 231, 235); fill-opacity: 1; white-space: pre;">mistral7b</text></g><g class="xtick"><text text-anchor="start" x="0" y="398" transform="translate(520.44,0) rotate(29.999999999999996,0,392)" style="font-family: Inter, 'Segoe UI', Arial, sans-serif; font-size: 12px; fill: rgb(229, 231, 235); fill-opacity: 1; white-space: pre;">qwen2.5-14b</text></g><g class="xtick"><text text-anchor="start" x="0" y="398" transform="translate(603.61,0) rotate(29.999999999999996,0,392)" style="font-family: Inter, 'Segoe UI', Arial, sans-serif; font-size: 12px; fill: rgb(229, 231, 235); fill-opacity: 1; white-space: pre;">qwen3-0.6b-8bit</text></g></g><g class="yaxislayer-above"><g class="ytick"><text text-anchor="end" x="59" y="4.199999999999999" transform="translate(0,350.58)" style="font-family: Inter, 'Segoe UI', Arial, sans-serif; font-size: 12px; fill: rgb(229, 231, 235); fill-opacity: 1; white-space: pre;">0.65</text></g><g class="ytick"><text text-anchor="end" x="59" y="4.199999999999999" style="font-family: Inter, 'Segoe UI', Arial, sans-serif; font-size: 12px; fill: rgb(229, 231, 235); fill-opacity: 1; white-space: pre;" transform="translate(0,313.02)">0.7</text></g><g class="ytick"><text text-anchor="end" x="59" y="4.199999999999999" style="font-family: Inter, 'Segoe UI', Arial, sans-serif; font-size: 12px; fill: rgb(229, 231, 235); fill-opacity: 1; white-space: pre;" transform="translate(0,275.45)">0.75</text></g><g class="ytick"><text text-anchor="end" x="59" y="4.199999999999999" style="font-family: Inter, 'Segoe UI', Arial, sans-serif; font-size: 12px; fill: rgb(229, 231, 235); fill-opacity: 1; white-space: pre;" transform="translate(0,237.89)">0.8</text></g><g class="ytick"><text text-anchor="end" x="59" y="4.199999999999999" style="font-family: Inter, 'Segoe UI', Arial, sans-serif; font-size: 12px; fill: rgb(229, 231, 235); fill-opacity: 1; white-space: pre;" transform="translate(0,200.33)">0.85</text></g><g class="ytick"><text text-anchor="end" x="59" y="4.199999999999999" style="font-family: Inter, 'Segoe UI', Arial, sans-serif; font-size: 12px; fill: rgb(229, 231, 235); fill-opacity: 1; white-space: pre;" transform="translate(0,162.76999999999998)">0.9</text></g><g class="ytick"><text text-anchor="end" x="59" y="4.199999999999999" style="font-family: Inter, 'Segoe UI', Arial, sans-serif; font-size: 12px; fill: rgb(229, 231, 235); fill-opacity: 1; white-space: pre;" transform="translate(0,125.21000000000001)">0.95</text></g><g class="ytick"><text text-anchor="end" x="59" y="4.199999999999999" style="font-family: Inter, 'Segoe UI', Arial, sans-serif; font-size: 12px; fill: rgb(229, 231, 235); fill-opacity: 1; white-space: pre;" transform="translate(0,87.65)">1</text></g></g><g class="overaxes-above"/></g></g><g class="polarlayer"/><g class="smithlayer"/><g class="ternarylayer"/><g class="geolayer"/><g class="funnelarealayer"/><g class="pielayer"/><g class="iciclelayer"/><g class="treemaplayer"/><g class="sunburstlayer"/><g class="glimages"/><defs id="topdefs-45215a"><g class="clips"/><clipPath id="legend45215a"><rect width="399" height="29" x="0" y="0"/></clipPath></defs><g class="layer-above"><g class="imagelayer"/><g class="shapelayer"/></g><g class="infolayer"><g class="legend" pointer-events="all" transform="translate(277,36.739999999999995)"><rect class="bg" shape-rendering="crispEdges" style="stroke: rgb(68, 68, 68); stroke-opacity: 1; fill: rgb(11, 16, 32); fill-opacity: 1; stroke-width: 0px;" width="399" height="29" x="0" y="0"/><g class="scrollbox" transform="" clip-path="url(#legend45215a)"><text class="legendtitletext" text-anchor="start" x="2" y="18.2" style="font-family: Inter, 'Segoe UI', Arial, sans-serif; font-size: 14px; fill: rgb(229, 231, 235); fill-opacity: 1; white-space: pre; opacity: 1;">output_format</text><g class="groups" transform=""><g class="traces" transform="translate(99.2119140625,14.5)" style="opacity: 1;"><text class="legendtext" text-anchor="start" x="40" y="4.680000000000001" style="font-family: Inter, 'Segoe UI', Arial, sans-serif; font-size: 12px; fill: rgb(229, 231, 235); fill-opacity: 1; white-space: pre;">TOML</text><g class="layers" style="opacity: 1;"><g class="legendfill"/><g class="legendlines"/><g class="legendsymbols"><g class="legendpoints"><path class="legendbox" d="M6,6H-6V-6H6Z" transform="translate(20,0)" style="stroke-width: 2px; fill: rgb(102, 194, 165); fill-opacity: 0.5; stroke: rgb(102, 194, 165); stroke-opacity: 1;"/></g></g></g><rect class="legendtoggle" x="0" y="-9.5" width="75.052734375" height="19" style="fill: rgb(0, 0, 0); fill-opacity: 0;"/></g></g><g class="groups" transform="translate(77.552734375,0)"><g class="traces" transform="translate(99.2119140625,14.5)" style="opacity: 1;"><text class="legendtext" text-anchor="start" x="40" y="4.680000000000001" style="font-family: Inter, 'Segoe UI', Arial, sans-serif; font-size: 12px; fill: rgb(229, 231, 235); fill-opacity: 1; white-space: pre;">XML</text><g class="layers" style="opacity: 1;"><g class="legendfill"/><g class="legendlines"/><g class="legendsymbols"><g class="legendpoints"><path class="legendbox" d="M6,6H-6V-6H6Z" transform="translate(20,0)" style="stroke-width: 2px; fill: rgb(252, 141, 98); fill-opacity: 0.5; stroke: rgb(252, 141, 98); stroke-opacity: 1;"/></g></g></g><rect class="legendtoggle" x="0" y="-9.5" width="67.353515625" height="19" style="fill: rgb(0, 0, 0); fill-opacity: 0;"/></g></g><g class="groups" transform="translate(147.40625,0)"><g class="traces" transform="translate(99.2119140625,14.5)" style="opacity: 1;"><text class="legendtext" text-anchor="start" x="40" y="4.680000000000001" style="font-family: Inter, 'Segoe UI', Arial, sans-serif; font-size: 12px; fill: rgb(229, 231, 235); fill-opacity: 1; white-space: pre;">YAML</text><g class="layers" style="opacity: 1;"><g class="legendfill"/><g class="legendlines"/><g class="legendsymbols"><g class="legendpoints"><path class="legendbox" d="M6,6H-6V-6H6Z" transform="translate(20,0)" style="stroke-width: 2px; fill: rgb(141, 160, 203); fill-opacity: 0.5; stroke: rgb(141, 160, 203); stroke-opacity: 1;"/></g></g></g><rect class="legendtoggle" x="0" y="-9.5" width="73.7109375" height="19" style="fill: rgb(0, 0, 0); fill-opacity: 0;"/></g></g><g class="groups" transform="translate(223.6171875,0)"><g class="traces" transform="translate(99.2119140625,14.5)" style="opacity: 1;"><text class="legendtext" text-anchor="start" x="40" y="4.680000000000001" style="font-family: Inter, 'Segoe UI', Arial, sans-serif; font-size: 12px; fill: rgb(229, 231, 235); fill-opacity: 1; white-space: pre;">TONL</text><g class="layers" style="opacity: 1;"><g class="legendfill"/><g class="legendlines"/><g class="legendsymbols"><g class="legendpoints"><path class="legendbox" d="M6,6H-6V-6H6Z" transform="translate(20,0)" style="stroke-width: 2px; fill: rgb(231, 138, 195); fill-opacity: 0.5; stroke: rgb(231, 138, 195); stroke-opacity: 1;"/></g></g></g><rect class="legendtoggle" x="0" y="-9.5" width="73.25390625" height="19" style="fill: rgb(0, 0, 0); fill-opacity: 0;"/></g></g></g><rect class="scrollbar" rx="20" ry="3" width="0" height="0" style="fill: rgb(128, 139, 164); fill-opacity: 1;" x="0" y="0"/></g><g class="g-gtitle"><text class="gtitle" x="35" y="36" text-anchor="start" dy="0em" style="opacity: 1; font-family: Inter, 'Segoe UI', Arial, sans-serif; font-size: 17px; fill: rgb(229, 231, 235); fill-opacity: 1; white-space: pre;">semantic_score grouped by model</text></g><g class="g-xtitle"><text class="xtitle" x="368" y="487.8634765625" text-anchor="middle" style="opacity: 1; font-family: Inter, 'Segoe UI', Arial, sans-serif; font-size: 14px; fill: rgb(229, 231, 235); fill-opacity: 1; white-space: pre;">model</text></g><g class="g-ytitle"><text class="ytitle" transform="rotate(-90,17.584375,228.5)" x="17.584375" y="228.5" text-anchor="middle" style="opacity: 1; font-family: Inter, 'Segoe UI', Arial, sans-serif; font-size: 14px; fill: rgb(229, 231, 235); fill-opacity: 1; white-space: pre;">semantic_score</text></g></g></svg>