<svg class="main-svg" xmlns="http://www.w3.org/2000/svg" xmlns:xlink="http://www.w3.org/1999/xlink" width="1400" height="1000" style="" viewBox="0 0 700 500"><rect x="0" y="0" width="700" height="500" style="fill: rgb(11, 16, 32); fill-opacity: 1;"/><defs id="defs-027bd7"><g class="clips"><clipPath id="clip027bd7xyplot" class="plotclip"><rect width="636" height="380"/></clipPath><clipPath class="axesclip" id="clip027bd7x"><rect x="40" y="0" width="636" height="500"/></clipPath><clipPath class="axesclip" id="clip027bd7y"><rect x="0" y="72" width="700" height="380"/></clipPath><clipPath class="axesclip" id="clip027bd7xy"><rect x="40" y="72" width="636" height="380"/></clipPath></g><g class="gradients"/><g class="patterns"/></defs><g class="bglayer"><rect class="bg" x="40" y="72" width="636" height="380" style="fill: rgb(17, 24, 39); fill-opacity: 1; stroke-width: 0;"/></g><g class="layer-below"><g class="imagelayer"/><g class="shapelayer"/></g><g class="cartesianlayer"><g class="subplot xy"><g class="layer-subplot"><g class="shapelayer"/><g class="imagelayer"/></g><g class="minor-gridlayer"><g class="x"/><g class="y"/></g><g class="gridlayer"><g class="x"><path class="xgrid crisp" transform="translate(82.39,0)" d="M0,72v380" style="stroke: rgb(39, 52, 73); stroke-opacity: 1; stroke-width: 1px;"/><path class="xgrid crisp" transform="translate(167.19,0)" d="M0,72v380" style="stroke: rgb(39, 52, 73); stroke-opacity: 1; stroke-width: 1px;"/><path class="xgrid crisp" transform="translate(251.99,0)" d="M0,72v380" style="stroke: rgb(39, 52, 73); stroke-opacity: 1; stroke-width: 1px;"/><path class="xgrid crisp" transform="translate(336.79,0)" d="M0,72v380" style="stroke: rgb(39, 52, 73); stroke-opacity: 1; stroke-width: 1px;"/><path class="xgrid crisp" transform="translate(421.59,0)" d="M0,72v380" style="stroke: rgb(39, 52, 73); stroke-opacity: 1; stroke-width: 1px;"/><path class="xgrid crisp" transform="translate(506.4,0)" d="M0,72v380" style="stroke: rgb(39, 52, 73); stroke-opacity: 1; stroke-width: 1px;"/><path class="xgrid crisp" transform="translate(591.2,0)" d="M0,72v380" style="stroke: rgb(39, 52, 73); stroke-opacity: 1; stroke-width: 1px;"/></g><g class="y"><path class="ygrid crisp" transform="translate(0,403.14)" d="M40,0h636" style="stroke: rgb(39, 52, 73); stroke-opacity: 1; stroke-width: 1px;"/><path class="ygrid crisp" transform="translate(0,354.28)" d="M40,0h636" style="stroke: rgb(39, 52, 73); stroke-opacity: 1; stroke-width: 1px;"/><path class="ygrid crisp" transform="translate(0,305.40999999999997)" d="M40,0h636" style="stroke: rgb(39, 52, 73); stroke-opacity: 1; stroke-width: 1px;"/><path class="ygrid crisp" transform="translate(0,256.55)" d="M40,0h636" style="stroke: rgb(39, 52, 73); stroke-opacity: 1; stroke-width: 1px;"/><path class="ygrid crisp" transform="translate(0,207.69)" d="M40,0h636" style="stroke: rgb(39, 52, 73); stroke-opacity: 1; stroke-width: 1px;"/><path class="ygrid crisp" transform="translate(0,158.82999999999998)" d="M40,0h636" style="stroke: rgb(39, 52, 73); stroke-opacity: 1; stroke-width: 1px;"/><path class="ygrid crisp" transform="translate(0,109.97)" d="M40,0h636" style="stroke: rgb(39, 52, 73); stroke-opacity: 1; stroke-width: 1px;"/></g></g><g class="zerolinelayer"><path class="yzl zl crisp" transform="translate(0,452)" d="M40,0h636" style="stroke: rgb(51, 65, 85); stroke-opacity: 1; stroke-width: 2px;"/></g><g class="layer-between"><g class="shapelayer"/><g class="imagelayer"/></g><path class="xlines-below"/><path class="ylines-below"/><g class="overlines-below"/><g class="xaxislayer-below"/><g class="yaxislayer-below"/><g class="overaxes-below"/><g class="overplot"><g class="xy" transform="translate(40,72)" clip-path="url(#clip027bd7xyplot)"><g class="scatterlayer mlayer"><g class="trace scatter trace36e13e" style="stroke-miterlimit: 2;"><g class="fills"><g><path class="js-fill" d="M510.17,380L0,380L0,351.33L15.38,351.44L17.95,351.59L43.58,354.12L46.15,354.38L66.66,355.64L69.22,355.64L84.6,354.65L87.16,354.31L99.98,351.84L102.55,351.19L117.93,346.28L120.49,345.29L135.87,338.26L138.44,336.89L151.26,329.01L153.82,327.19L164.07,318.99L166.64,316.67L176.89,306.14L179.46,303.17L189.71,289.74L192.27,285.98L202.53,269.21L205.09,264.59L215.35,244.36L217.91,238.89L230.73,209.33L233.29,203.03L251.24,156.7L253.8,149.92L274.31,97.36L276.88,91.24L289.69,63.31L292.26,58.36L299.95,45.02L302.51,41.11L310.2,31.18L312.77,28.49L320.46,22.39L323.02,21.02L328.15,19.33L330.71,19L335.84,19.38L338.4,20.1L343.53,22.55L346.09,24.29L351.22,28.76L353.79,31.47L361.48,41.49L364.04,45.42L371.73,58.82L374.3,63.8L384.55,85.84L387.11,91.82L402.5,130.37L405.06,137.09L433.26,210.03L435.82,216.2L448.64,244.94L451.21,250.22L461.46,269.65L464.02,274.08L474.28,290.09L476.84,293.68L487.1,306.55L489.66,309.42L499.91,319.7L502.48,322L510.17,328.36" style="fill: rgb(99, 110, 250); fill-opacity: 0.5; stroke-width: 0;"/></g></g><g class="errorbars"/><g class="lines"><path class="js-line" d="M0,351.33L15.38,351.44L17.95,351.59L43.58,354.12L46.15,354.38L66.66,355.64L69.22,355.64L84.6,354.65L87.16,354.31L99.98,351.84L102.55,351.19L117.93,346.28L120.49,345.29L135.87,338.26L138.44,336.89L151.26,329.01L153.82,327.19L164.07,318.99L166.64,316.67L176.89,306.14L179.46,303.17L189.71,289.74L192.27,285.98L202.53,269.21L205.09,264.59L215.35,244.36L217.91,238.89L230.73,209.33L233.29,203.03L251.24,156.7L253.8,149.92L274.31,97.36L276.88,91.24L289.69,63.31L292.26,58.36L299.95,45.02L302.51,41.11L310.2,31.18L312.77,28.49L320.46,22.39L323.02,21.02L328.15,19.33L330.71,19L335.84,19.38L338.4,20.1L343.53,22.55L346.09,24.29L351.22,28.76L353.79,31.47L361.48,41.49L364.04,45.42L371.73,58.82L374.3,63.8L384.55,85.84L387.11,91.82L402.5,130.37L405.06,137.09L433.26,210.03L435.82,216.2L448.64,244.94L451.21,250.22L461.46,269.65L464.02,274.08L474.28,290.09L476.84,293.68L487.1,306.55L489.66,309.42L499.91,319.7L502.48,322L510.17,328.36" style="vector-effect: none; fill: none; stroke: rgb(99, 110, 250); stroke-opacity: 1; stroke-width: 2px; opacity: 1;"/></g><g class="points"/><g class="text"/></g><g class="trace scatter trace5130af" style="stroke-miterlimit: 2;"><g class="fills"><g><path class="js-fill" d="M636,380L46.12,380L46.12,275.98L84.65,244.28L87.61,242.02L105.4,229.34L108.36,227.41L123.19,218.7L126.15,217.16L140.97,210.59L143.94,209.52L155.79,206.05L158.76,205.4L170.61,203.65L173.58,203.43L185.43,203.41L188.4,203.61L200.26,205.24L203.22,205.84L218.04,209.9L221.01,210.91L238.79,218.13L241.76,219.5L265.47,231.61L268.43,233.22L321.79,261.63L324.75,263.03L345.5,271.95L348.47,273.09L369.22,280.07L372.18,280.93L392.93,286L395.9,286.6L419.61,290.45L422.57,290.82L452.22,293.66L455.18,293.87L541.14,300.05L544.11,300.4L570.79,304.29L573.75,304.82L597.46,309.82L600.43,310.54L627.11,317.91L630.07,318.82L636,320.69" style="fill: rgb(239, 85, 59); fill-opacity: 0.5; stroke-width: 0;"/></g></g><g class="errorbars"/><g class="lines"><path class="js-line" d="M46.12,275.98L84.65,244.28L87.61,242.02L105.4,229.34L108.36,227.41L123.19,218.7L126.15,217.16L140.97,210.59L143.94,209.52L155.79,206.05L158.76,205.4L170.61,203.65L173.58,203.43L185.43,203.41L188.4,203.61L200.26,205.24L203.22,205.84L218.04,209.9L221.01,210.91L238.79,218.13L241.76,219.5L265.47,231.61L268.43,233.22L321.79,261.63L324.75,263.03L345.5,271.95L348.47,273.09L369.22,280.07L372.18,280.93L392.93,286L395.9,286.6L419.61,290.45L422.57,290.82L452.22,293.66L455.18,293.87L541.14,300.05L544.11,300.4L570.79,304.29L573.75,304.82L597.46,309.82L600.43,310.54L627.11,317.91L630.07,318.82L636,320.69" style="vector-effect: none; fill: none; stroke: rgb(239, 85, 59); stroke-opacity: 1; stroke-width: 2px; opacity: 1;"/></g><g class="points"/><g class="text"/></g><g class="trace scatter trace9e18f3" style="stroke-miterlimit: 2;"><g class="fills"><g><path class="js-fill" d="M387.34,380L119.67,380L119.67,119.23L130.43,92.88L131.78,89.9L141.19,71.21L142.54,68.85L150.61,56.34L151.95,54.52L160.02,45.25L161.37,43.97L168.09,38.71L169.44,37.88L176.16,34.84L177.51,34.46L184.23,33.64L185.58,33.7L192.3,35.14L193.65,35.65L200.38,39.35L201.72,40.32L208.45,46.3L209.79,47.72L217.86,57.77L219.21,59.69L228.62,74.92L229.97,77.33L242.07,101.16L243.42,103.99L279.74,181.22L281.08,183.72L291.84,201.83L293.19,203.83L301.26,214.59L302.6,216.16L310.67,224.32L312.02,225.47L320.09,231.2L321.43,231.97L329.5,235.7L330.85,236.19L341.61,239.16L342.95,239.46L361.79,244.04L363.13,244.51L372.55,248.72L373.89,249.48L381.96,254.98L383.31,256.06L387.34,259.57" style="fill: rgb(0, 204, 150); fill-opacity: 0.5; stroke-width: 0;"/></g></g><g class="errorbars"/><g class="lines"><path class="js-line" d="M119.67,119.23L130.43,92.88L131.78,89.9L141.19,71.21L142.54,68.85L150.61,56.34L151.95,54.52L160.02,45.25L161.37,43.97L168.09,38.71L169.44,37.88L176.16,34.84L177.51,34.46L184.23,33.64L185.58,33.7L192.3,35.14L193.65,35.65L200.38,39.35L201.72,40.32L208.45,46.3L209.79,47.72L217.86,57.77L219.21,59.69L228.62,74.92L229.97,77.33L242.07,101.16L243.42,103.99L279.74,181.22L281.08,183.72L291.84,201.83L293.19,203.83L301.26,214.59L302.6,216.16L310.67,224.32L312.02,225.47L320.09,231.2L321.43,231.97L329.5,235.7L330.85,236.19L341.61,239.16L342.95,239.46L361.79,244.04L363.13,244.51L372.55,248.72L373.89,249.48L381.96,254.98L383.31,256.06L387.34,259.57" style="vector-effect: none; fill: none; stroke: rgb(0, 204, 150); stroke-opacity: 1; stroke-width: 2px; opacity: 1;"/></g><g class="points"/><g class="text"/></g><g class="trace scatter tracef69f61" style="stroke-miterlimit: 2;"><g class="fills"><g><path class="js-fill" d="M507.6,380L170.08,380L170.08,171.06L180.26,150.24L181.96,147.17L190.44,133.76L192.13,131.5L198.92,123.99L200.61,122.49L207.4,118.11L209.09,117.4L214.18,116.2L215.88,116.1L220.97,116.65L222.66,117.1L229.45,120.12L231.14,121.15L239.62,127.62L241.32,129.13L256.58,144.22L258.28,145.93L270.15,156.91L271.85,158.27L280.33,163.97L282.02,164.86L288.81,167.52L290.5,167.96L297.29,168.76L298.98,168.73L305.77,167.76L307.46,167.32L315.95,164.12L317.64,163.31L331.21,155.77L332.91,154.78L346.47,147.78L348.17,147.1L356.65,144.73L358.35,144.49L365.13,144.42L366.83,144.64L373.61,146.5L375.31,147.22L382.09,151.1L383.79,152.32L392.27,159.82L393.96,161.58L402.44,171.53L404.14,173.73L416.01,190.48L417.71,193.02L453.33,246.05L455.02,248.32L468.59,265.12L470.29,267.05L483.85,281.31L485.55,282.96L504.21,299.82L505.9,301.27L507.6,302.71" style="fill: rgb(171, 99, 250); fill-opacity: 0.5; stroke-width: 0;"/></g></g><g class="errorbars"/><g class="lines"><path class="js-line" d="M170.08,171.06L180.26,150.24L181.96,147.17L190.44,133.76L192.13,131.5L198.92,123.99L200.61,122.49L207.4,118.11L209.09,117.4L214.18,116.2L215.88,116.1L220.97,116.65L222.66,117.1L229.45,120.12L231.14,121.15L239.62,127.62L241.32,129.13L256.58,144.22L258.28,145.93L270.15,156.91L271.85,158.27L280.33,163.97L282.02,164.86L288.81,167.52L290.5,167.96L297.29,168.76L298.98,168.73L305.77,167.76L307.46,167.32L315.95,164.12L317.64,163.31L331.21,155.77L332.91,154.78L346.47,147.78L348.17,147.1L356.65,144.73L358.35,144.49L365.13,144.42L366.83,144.64L373.61,146.5L375.31,147.22L382.09,151.1L383.79,152.32L392.27,159.82L393.96,161.58L402.44,171.53L404.14,173.73L416.01,190.48L417.71,193.02L453.33,246.05L455.02,248.32L468.59,265.12L470.29,267.05L483.85,281.31L485.55,282.96L504.21,299.82L505.9,301.27L507.6,302.71" style="vector-effect: none; fill: none; stroke: rgb(171, 99, 250); stroke-opacity: 1; stroke-width: 2px; opacity: 1;"/></g><g class="points"/><g class="text"/></g></g></g></g><g class="zerolinelayer-above"/><path class="xlines-above crisp" d="M0,0" style="fill: none;"/><path class="ylines-above crisp" d="M0,0" style="fill: none;"/><g class="overlines-above"/><g class="xaxislayer-above"><g class="xtick"><text text-anchor="middle" x="0" y="465" transform="translate(82.39,0)" style="font-family: Inter, 'Segoe UI', Arial, sans-serif; font-size: 12px; fill: rgb(229, 231, 235); fill-opacity: 1; white-space: pre;">0.65</text></g><g class="xtick"><text text-anchor="middle" x="0" y="465" style="font-family: Inter, 'Segoe UI', Arial, sans-serif; font-size: 12px; fill: rgb(229, 231, 235); fill-opacity: 1; white-space: pre;" transform="translate(167.19,0)">0.7</text></g><g class="xtick"><text text-anchor="middle" x="0" y="465" style="font-family: Inter, 'Segoe UI', Arial, sans-serif; font-size: 12px; fill: rgb(229, 231, 235); fill-opacity: 1; white-space: pre;" transform="translate(251.99,0)">0.75</text></g><g class="xtick"><text text-anchor="middle" x="0" y="465" style="font-family: Inter, 'Segoe UI', Arial, sans-serif; font-size: 12px; fill: rgb(229, 231, 235); fill-opacity: 1; white-space: pre;" transform="translate(336.79,0)">0.8</text></g><g class="xtick"><text text-anchor="middle" x="0" y="465" style="font-family: Inter, 'Segoe UI', Arial, sans-serif; font-size: 12px; fill: rgb(229, 231, 235); fill-opacity: 1; white-space: pre;" transform="translate(421.59,0)">0.85</text></g><g class="xtick"><text text-anchor="middle" x="0" y="465" style="font-family: Inter, 'Segoe UI', Arial, sans-serif; font-size: 12px; fill: rgb(229, 231, 235); fill-opacity: 1; white-space: pre;" transform="translate(506.4,0)">0.9</text></g><g class="xtick"><text text-anchor="middle" x="0" y="465" style="font-family: Inter, 'Segoe UI', Arial, sans-serif; font-size: 12px; fill: rgb(229, 231, 235); fill-opacity: 1; white-space: pre;" transform="translate(591.2,0)">0.95</text></g><g class="xtick"><text text-anchor="middle" x="0" y="465" style="font-family: Inter, 'Segoe UI', Arial, sans-serif; font-size: 12px; fill: rgb(229, 231, 235); fill-opacity: 1; white-space: pre;" transform="translate(676,0)">1</text></g></g><g class="yaxislayer-above"><g class="ytick"><text text-anchor="end" x="39" y="4.199999999999999" transform="translate(0,452)" style="font-family: Inter, 'Segoe UI', Arial, sans-serif; font-size: 12px; fill: rgb(229, 231, 235); fill-opacity: 1; white-space: pre;">0</text></g><g class="ytick"><text text-anchor="end" x="39" y="4.199999999999999" style="font-family: Inter, 'Segoe UI', Arial, sans-serif; font-size: 12px; fill: rgb(229, 231, 235); fill-opacity: 1; white-space: pre;" transform="translate(0,403.14)">1</text></g><g class="ytick"><text text-anchor="end" x="39" y="4.199999999999999" style="font-family: Inter, 'Segoe UI', Arial, sans-serif; font-size: 12px; fill: rgb(229, 231, 235); fill-opacity: 1; white-space: pre;" transform="translate(0,354.28)">2</text></g><g class="ytick"><text text-anchor="end" x="39" y="4.199999999999999" style="font-family: Inter, 'Segoe UI', Arial, sans-serif; font-size: 12px; fill: rgb(229, 231, 235); fill-opacity: 1; white-space: pre;" transform="translate(0,305.40999999999997)">3</text></g><g class="ytick"><text text-anchor="end" x="39" y="4.199999999999999" style="font-family: Inter, 'Segoe UI', Arial, sans-serif; font-size: 12px; fill: rgb(229, 231, 235); fill-opacity: 1; white-space: pre;" transform="translate(0,256.55)">4</text></g><g class="ytick"><text text-anchor="end" x="39" y="4.199999999999999" style="font-family: Inter, 'Segoe UI', Arial, sans-serif; font-size: 12px; fill: rgb(229, 231, 235); fill-opacity: 1; white-space: pre;" transform="translate(0,207.69)">5</text></g><g class="ytick"><text text-anchor="end" x="39" y="4.199999999999999" style="font-family: Inter, 'Segoe UI', Arial, sans-serif; font-size: 12px; fill: rgb(229, 231, 235); fill-opacity: 1; white-space: pre;" transform="translate(0,158.82999999999998)">6</text></g><g class="ytick"><text text-anchor="end" x="39" y="4.199999999999999" style="font-family: Inter, 'Segoe UI', Arial, sans-serif; font-size: 12px; fill: rgb(229, 231, 235); fill-opacity: 1; white-space: pre;" transform="translate(0,109.97)">7</text></g></g><g class="overaxes-above"/></g></g><g class="polarlayer"/><g class="smithlayer"/><g class="ternarylayer"/><g class="geolayer"/><g class="funnelarealayer"/><g class="pielayer"/><g class="iciclelayer"/><g class="treemaplayer"/><g class="sunburstlayer"/><g class="glimages"/><defs id="topdefs-027bd7"><g class="clips"/><clipPath id="legend027bd7"><rect width="300" height="29" x="0" y="0"/></clipPath></defs><g class="layer-above"><g class="imagelayer"/><g class="shapelayer"/></g><g class="infolayer"><g class="legend" pointer-events="all" transform="translate(376,35.39999999999999)"><rect class="bg" shape-rendering="crispEdges" style="stroke: rgb(68, 68, 68); stroke-opacity: 1; fill: rgb(11, 16, 32); fill-opacity: 1; stroke-width: 0px;" width="300" height="29" x="0" y="0"/><g class="scrollbox" transform="" clip-path="url(#legend027bd7)"><g class="groups"><g class="traces" transform="translate(0,14.5)" style="opacity: 1;"><text class="legendtext" text-anchor="start" x="40" y="4.680000000000001" style="font-family: Inter, 'Segoe UI', Arial, sans-serif; font-size: 12px; fill: rgb(229, 231, 235); fill-opacity: 1; white-space: pre;">TOML</text><g class="layers"><g class="legendfill"><path class="js-fill" d="M5,-2h30v6h-30z" style="stroke-width: 0; fill: rgb(99, 110, 250); fill-opacity: 0.5;"/></g><g class="legendlines"><path class="js-line" d="M5,-2h30" style="fill: none; stroke: rgb(99, 110, 250); stroke-opacity: 1; stroke-width: 2px;"/></g><g class="legendsymbols"><g class="legendpoints"/></g></g><rect class="legendtoggle" x="0" y="-9.5" width="75.052734375" height="19" style="fill: rgb(0, 0, 0); fill-opacity: 0;"/></g><g class="traces" transform="translate(77.552734375,14.5)" style="opacity: 1;"><text class="legendtext" text-anchor="start" x="40" y="4.680000000000001" style="font-family: Inter, 'Segoe UI', Arial, sans-serif; font-size: 12px; fill: rgb(229, 231, 235); fill-opacity: 1; white-space: pre;">TONL</text><g class="layers"><g class="legendfill"><path class="js-fill" d="M5,-2h30v6h-30z" style="stroke-width: 0; fill: rgb(239, 85, 59); fill-opacity: 0.5;"/></g><g class="legendlines"><path class="js-line" d="M5,-2h30" style="fill: none; stroke: rgb(239, 85, 59); stroke-opacity: 1; stroke-width: 2px;"/></g><g class="legendsymbols"><g class="legendpoints"/></g></g><rect class="legendtoggle" x="0" y="-9.5" width="73.25390625" height="19" style="fill: rgb(0, 0, 0); fill-opacity: 0;"/></g><g class="traces" transform="translate(153.306640625,14.5)" style="opacity: 1;"><text class="legendtext" text-anchor="start" x="40" y="4.680000000000001" style="font-family: Inter, 'Segoe UI', Arial, sans-serif; font-size: 12px; fill: rgb(229, 231, 235); fill-opacity: 1; white-space: pre;">XML</text><g class="layers"><g class="legendfill"><path class="js-fill" d="M5,-2h30v6h-30z" style="stroke-width: 0; fill: rgb(0, 204, 150); fill-opacity: 0.5;"/></g><g class="legendlines"><path class="js-line" d="M5,-2h30" style="fill: none; stroke: rgb(0, 204, 150); stroke-opacity: 1; stroke-width: 2px;"/></g><g class="legendsymbols"><g class="legendpoints"/></g></g><rect class="legendtoggle" x="0" y="-9.5" width="67.353515625" height="19" style="fill: rgb(0, 0, 0); fill-opacity: 0;"/></g><g class="traces" transform="translate(223.16015625,14.5)" style="opacity: 1;"><text class="legendtext" text-anchor="start" x="40" y="4.680000000000001" style="font-family: Inter, 'Segoe UI', Arial, sans-serif; font-size: 12px; fill: rgb(229, 231, 235); fill-opacity: 1; white-space: pre;">YAML</text><g class="layers"><g class="legendfill"><path class="js-fill" d="M5,-2h30v6h-30z" style="stroke-width: 0; fill: rgb(171, 99, 250); fill-opacity: 0.5;"/></g><g class="legendlines"><path class="js-line" d="M5,-2h30" style="fill: none; stroke: rgb(171, 99, 250); stroke-opacity: 1; stroke-width: 2px;"/></g><g class="legendsymbols"><g class="legendpoints"/></g></g><rect class="legendtoggle" x="0" y="-9.5" width="73.7109375" height="19" style="fill: rgb(0, 0, 0); fill-opacity: 0;"/></g></g></g><rect class="scrollbar" rx="20" ry="3" width="0" height="0" style="fill: rgb(128, 139, 164); fill-opacity: 1;" x="0" y="0"/></g><g class="g-gtitle"><text class="gtitle" x="35" y="36" text-anchor="start" dy="0em" style="opacity: 1; font-family: Inter, 'Segoe UI', Arial, sans-serif; font-size: 17px; fill: rgb(229, 231, 235); fill-opacity: 1; white-space: pre;">semantic_score KDE distribution</text></g><g class="g-xtitle"/><g class="g-ytitle"/></g></svg>