<svg class="main-svg" xmlns="http://www.w3.org/2000/svg" xmlns:xlink="http://www.w3.org/1999/xlink" width="1400" height="1000" style="" viewBox="0 0 700 500"><rect x="0" y="0" width="700" height="500" style="fill: rgb(11, 16, 32); fill-opacity: 1;"/><defs id="defs-57a9ad"><g class="clips"><clipPath id="clip57a9adxyplot" class="plotclip"><rect width="619" height="375"/></clipPath><clipPath class="axesclip" id="clip57a9adx"><rect x="57" y="0" width="619" height="500"/></clipPath><clipPath class="axesclip" id="clip57a9ady"><rect x="0" y="72" width="700" height="375"/></clipPath><clipPath class="axesclip" id="clip57a9adxy"><rect x="57" y="72" width="619" height="375"/></clipPath></g><g class="gradients"/><g class="patterns"/></defs><g class="bglayer"><rect class="bg" x="57" y="72" width="619" height="375" style="fill: rgb(17, 24, 39); fill-opacity: 1; stroke-width: 0;"/></g><g class="layer-below"><g class="imagelayer"/><g class="shapelayer"/></g><g class="cartesianlayer"><g class="subplot xy"><g class="layer-subplot"><g class="shapelayer"/><g class="imagelayer"/></g><g class="minor-gridlayer"><g class="x"/><g class="y"/></g><g class="gridlayer"><g class="x"><path class="xgrid crisp" transform="translate(137,0)" d="M0,72v375" style="stroke: rgb(39, 52, 73); stroke-opacity: 1; stroke-width: 1px;"/><path class="xgrid crisp" transform="translate(291,0)" d="M0,72v375" style="stroke: rgb(39, 52, 73); stroke-opacity: 1; stroke-width: 1px;"/><path class="xgrid crisp" transform="translate(445,0)" d="M0,72v375" style="stroke: rgb(39, 52, 73); stroke-opacity: 1; stroke-width: 1px;"/><path class="xgrid crisp" transform="translate(599,0)" d="M0,72v375" style="stroke: rgb(39, 52, 73); stroke-opacity: 1; stroke-width: 1px;"/></g><g class="y"><path class="ygrid crisp" transform="translate(0,374.68)" d="M57,0h619" style="stroke: rgb(39, 52, 73); stroke-opacity: 1; stroke-width: 1px;"/><path class="ygrid crisp" transform="translate(0,321.11)" d="M57,0h619" style="stroke: rgb(39, 52, 73); stroke-opacity: 1; stroke-width: 1px;"/><path class="ygrid crisp" transform="translate(0,267.53999999999996)" d="M57,0h619" style="stroke: rgb(39, 52, 73); stroke-opacity: 1; stroke-width: 1px;"/><path class="ygrid crisp" transform="translate(0,213.96)" d="M57,0h619" style="stroke: rgb(39, 52, 73); stroke-opacity: 1; stroke-width: 1px;"/><path class="ygrid crisp" transform="translate(0,160.39)" d="M57,0h619" style="stroke: rgb(39, 52, 73); stroke-opacity: 1; stroke-width: 1px;"/><path class="ygrid crisp" transform="translate(0,106.82)" d="M57,0h619" style="stroke: rgb(39, 52, 73); stroke-opacity: 1; stroke-width: 1px;"/></g></g><g class="zerolinelayer"><path class="yzl zl crisp" transform="translate(0,428.25)" d="M57,0h619" style="stroke: rgb(51, 65, 85); stroke-opacity: 1; stroke-width: 2px;"/></g><g class="layer-between"><g class="shapelayer"/><g class="imagelayer"/></g><path class="xlines-below"/><path class="ylines-below"/><g class="overlines-below"/><g class="xaxislayer-below"/><g class="yaxislayer-below"/><g class="overaxes-below"/><g class="overplot"><g class="xy" transform="translate(57,72)" clip-path="url(#clip57a9adxyplot)"><g class="boxlayer mlayer"><g class="trace boxes" style="opacity: 1;"><path class="box" d="M42.27,301.61H117.73M42.27,321.03H117.73V227.01H42.27ZM80,321.03V353.04M80,227.01V93.21M61.13,353.04H98.86M61.13,93.21H98.86" style="vector-effect: none; stroke-width: 2px; stroke: rgb(102, 194, 165); stroke-opacity: 1; fill: rgb(102, 194, 165); fill-opacity: 0.5;"/><g class="points"><path class="point" transform="translate(28.3,353.04)" d="M3,0A3,3 0 1,1 0,-3A3,3 0 0,1 3,0Z" style="opacity: 1; stroke-width: 0px; fill: rgb(102, 194, 165); fill-opacity: 1;"/><path class="point" transform="translate(17.12,345)" d="M3,0A3,3 0 1,1 0,-3A3,3 0 0,1 3,0Z" style="opacity: 1; stroke-width: 0px; fill: rgb(102, 194, 165); fill-opacity: 1;"/><path class="point" transform="translate(31.3,345)" d="M3,0A3,3 0 1,1 0,-3A3,3 0 0,1 3,0Z" style="opacity: 1; stroke-width: 0px; fill: rgb(102, 194, 165); fill-opacity: 1;"/><path class="point" transform="translate(14.3,341.79)" d="M3,0A3,3 0 1,1 0,-3A3,3 0 0,1 3,0Z" style="opacity: 1; stroke-width: 0px; fill: rgb(102, 194, 165); fill-opacity: 1;"/><path class="point" transform="translate(20.64,335.89)" d="M3,0A3,3 0 1,1 0,-3A3,3 0 0,1 3,0Z" style="opacity: 1; stroke-width: 0px; fill: rgb(102, 194, 165); fill-opacity: 1;"/><path class="point" transform="translate(29.35,316.07)" d="M3,0A3,3 0 1,1 0,-3A3,3 0 0,1 3,0Z" style="opacity: 1; stroke-width: 0px; fill: rgb(102, 194, 165); fill-opacity: 1;"/><path class="point" transform="translate(23.01,312.32)" d="M3,0A3,3 0 1,1 0,-3A3,3 0 0,1 3,0Z" style="opacity: 1; stroke-width: 0px; fill: rgb(102, 194, 165); fill-opacity: 1;"/><path class="point" transform="translate(26.11,308.57)" d="M3,0A3,3 0 1,1 0,-3A3,3 0 0,1 3,0Z" style="opacity: 1; stroke-width: 0px; fill: rgb(102, 194, 165); fill-opacity: 1;"/><path class="point" transform="translate(20.54,307.5)" d="M3,0A3,3 0 1,1 0,-3A3,3 0 0,1 3,0Z" style="opacity: 1; stroke-width: 0px; fill: rgb(102, 194, 165); fill-opacity: 1;"/><path class="point" transform="translate(16.9,305.89)" d="M3,0A3,3 0 1,1 0,-3A3,3 0 0,1 3,0Z" style="opacity: 1; stroke-width: 0px; fill: rgb(102, 194, 165); fill-opacity: 1;"/><path class="point" transform="translate(25.71,301.61)" d="M3,0A3,3 0 1,1 0,-3A3,3 0 0,1 3,0Z" style="opacity: 1; stroke-width: 0px; fill: rgb(102, 194, 165); fill-opacity: 1;"/><path class="point" transform="translate(20.52,287.68)" d="M3,0A3,3 0 1,1 0,-3A3,3 0 0,1 3,0Z" style="opacity: 1; stroke-width: 0px; fill: rgb(102, 194, 165); fill-opacity: 1;"/><path class="point" transform="translate(27.11,269.46)" d="M3,0A3,3 0 1,1 0,-3A3,3 0 0,1 3,0Z" style="opacity: 1; stroke-width: 0px; fill: rgb(102, 194, 165); fill-opacity: 1;"/><path class="point" transform="translate(18.01,259.82)" d="M3,0A3,3 0 1,1 0,-3A3,3 0 0,1 3,0Z" style="opacity: 1; stroke-width: 0px; fill: rgb(102, 194, 165); fill-opacity: 1;"/><path class="point" transform="translate(20.3,252.32)" d="M3,0A3,3 0 1,1 0,-3A3,3 0 0,1 3,0Z" style="opacity: 1; stroke-width: 0px; fill: rgb(102, 194, 165); fill-opacity: 1;"/><path class="point" transform="translate(28.2,227.14)" d="M3,0A3,3 0 1,1 0,-3A3,3 0 0,1 3,0Z" style="opacity: 1; stroke-width: 0px; fill: rgb(102, 194, 165); fill-opacity: 1;"/><path class="point" transform="translate(22.07,226.61)" d="M3,0A3,3 0 1,1 0,-3A3,3 0 0,1 3,0Z" style="opacity: 1; stroke-width: 0px; fill: rgb(102, 194, 165); fill-opacity: 1;"/><path class="point" transform="translate(18.91,115.71)" d="M3,0A3,3 0 1,1 0,-3A3,3 0 0,1 3,0Z" style="opacity: 1; stroke-width: 0px; fill: rgb(102, 194, 165); fill-opacity: 1;"/><path class="point" transform="translate(21.74,93.21)" d="M3,0A3,3 0 1,1 0,-3A3,3 0 0,1 3,0Z" style="opacity: 1; stroke-width: 0px; fill: rgb(102, 194, 165); fill-opacity: 1;"/><path class="point" transform="translate(23.3,77.68)" d="M3,0A3,3 0 1,1 0,-3A3,3 0 0,1 3,0Z" style="opacity: 1; stroke-width: 0px; fill: rgb(102, 194, 165); fill-opacity: 1;"/><path class="point" transform="translate(25.51,77.14)" d="M3,0A3,3 0 1,1 0,-3A3,3 0 0,1 3,0Z" style="opacity: 1; stroke-width: 0px; fill: rgb(102, 194, 165); fill-opacity: 1;"/></g></g><g class="trace boxes" style="opacity: 1;"><path class="box" d="M196.27,305.36H271.73M196.27,347.95H271.73V239.73H196.27ZM234,347.95V351.96M234,239.73V87.32M215.14,351.96H252.87M215.14,87.32H252.87" style="vector-effect: none; stroke-width: 2px; stroke: rgb(252, 141, 98); stroke-opacity: 1; fill: rgb(252, 141, 98); fill-opacity: 0.5;"/><g class="points"><path class="point" transform="translate(183.28,351.96)" d="M3,0A3,3 0 1,1 0,-3A3,3 0 0,1 3,0Z" style="opacity: 1; stroke-width: 0px; fill: rgb(252, 141, 98); fill-opacity: 1;"/><path class="point" transform="translate(173.1,350.89)" d="M3,0A3,3 0 1,1 0,-3A3,3 0 0,1 3,0Z" style="opacity: 1; stroke-width: 0px; fill: rgb(252, 141, 98); fill-opacity: 1;"/><path class="point" transform="translate(182.38,350.36)" d="M3,0A3,3 0 1,1 0,-3A3,3 0 0,1 3,0Z" style="opacity: 1; stroke-width: 0px; fill: rgb(252, 141, 98); fill-opacity: 1;"/><path class="point" transform="translate(172.07,350.36)" d="M3,0A3,3 0 1,1 0,-3A3,3 0 0,1 3,0Z" style="opacity: 1; stroke-width: 0px; fill: rgb(252, 141, 98); fill-opacity: 1;"/><path class="point" transform="translate(175.87,350.36)" d="M3,0A3,3 0 1,1 0,-3A3,3 0 0,1 3,0Z" style="opacity: 1; stroke-width: 0px; fill: rgb(252, 141, 98); fill-opacity: 1;"/><path class="point" transform="translate(180.27,347.14)" d="M3,0A3,3 0 1,1 0,-3A3,3 0 0,1 3,0Z" style="opacity: 1; stroke-width: 0px; fill: rgb(252, 141, 98); fill-opacity: 1;"/><path class="point" transform="translate(177.23,333.75)" d="M3,0A3,3 0 1,1 0,-3A3,3 0 0,1 3,0Z" style="opacity: 1; stroke-width: 0px; fill: rgb(252, 141, 98); fill-opacity: 1;"/><path class="point" transform="translate(178.62,328.39)" d="M3,0A3,3 0 1,1 0,-3A3,3 0 0,1 3,0Z" style="opacity: 1; stroke-width: 0px; fill: rgb(252, 141, 98); fill-opacity: 1;"/><path class="point" transform="translate(176.07,324.11)" d="M3,0A3,3 0 1,1 0,-3A3,3 0 0,1 3,0Z" style="opacity: 1; stroke-width: 0px; fill: rgb(252, 141, 98); fill-opacity: 1;"/><path class="point" transform="translate(174.43,319.82)" d="M3,0A3,3 0 1,1 0,-3A3,3 0 0,1 3,0Z" style="opacity: 1; stroke-width: 0px; fill: rgb(252, 141, 98); fill-opacity: 1;"/><path class="point" transform="translate(178.4,305.36)" d="M3,0A3,3 0 1,1 0,-3A3,3 0 0,1 3,0Z" style="opacity: 1; stroke-width: 0px; fill: rgb(252, 141, 98); fill-opacity: 1;"/><path class="point" transform="translate(176.27,290.89)" d="M3,0A3,3 0 1,1 0,-3A3,3 0 0,1 3,0Z" style="opacity: 1; stroke-width: 0px; fill: rgb(252, 141, 98); fill-opacity: 1;"/><path class="point" transform="translate(179.56,271.61)" d="M3,0A3,3 0 1,1 0,-3A3,3 0 0,1 3,0Z" style="opacity: 1; stroke-width: 0px; fill: rgb(252, 141, 98); fill-opacity: 1;"/><path class="point" transform="translate(174.92,271.07)" d="M3,0A3,3 0 1,1 0,-3A3,3 0 0,1 3,0Z" style="opacity: 1; stroke-width: 0px; fill: rgb(252, 141, 98); fill-opacity: 1;"/><path class="point" transform="translate(175.98,266.25)" d="M3,0A3,3 0 1,1 0,-3A3,3 0 0,1 3,0Z" style="opacity: 1; stroke-width: 0px; fill: rgb(252, 141, 98); fill-opacity: 1;"/><path class="point" transform="translate(179.64,247.5)" d="M3,0A3,3 0 1,1 0,-3A3,3 0 0,1 3,0Z" style="opacity: 1; stroke-width: 0px; fill: rgb(252, 141, 98); fill-opacity: 1;"/><path class="point" transform="translate(176.78,216.43)" d="M3,0A3,3 0 1,1 0,-3A3,3 0 0,1 3,0Z" style="opacity: 1; stroke-width: 0px; fill: rgb(252, 141, 98); fill-opacity: 1;"/><path class="point" transform="translate(175.3,208.39)" d="M3,0A3,3 0 1,1 0,-3A3,3 0 0,1 3,0Z" style="opacity: 1; stroke-width: 0px; fill: rgb(252, 141, 98); fill-opacity: 1;"/><path class="point" transform="translate(176.65,111.43)" d="M3,0A3,3 0 1,1 0,-3A3,3 0 0,1 3,0Z" style="opacity: 1; stroke-width: 0px; fill: rgb(252, 141, 98); fill-opacity: 1;"/><path class="point" transform="translate(177.36,90)" d="M3,0A3,3 0 1,1 0,-3A3,3 0 0,1 3,0Z" style="opacity: 1; stroke-width: 0px; fill: rgb(252, 141, 98); fill-opacity: 1;"/><path class="point" transform="translate(178.34,87.32)" d="M3,0A3,3 0 1,1 0,-3A3,3 0 0,1 3,0Z" style="opacity: 1; stroke-width: 0px; fill: rgb(252, 141, 98); fill-opacity: 1;"/></g></g><g class="trace boxes" style="opacity: 1;"><path class="box" d="M350.27,140.36H425.73M350.27,316.07H425.73V78.88H350.27ZM388,316.07V346.07M388,78.88V18.75M369.14,346.07H406.87M369.14,18.75H406.87" style="vector-effect: none; stroke-width: 2px; stroke: rgb(141, 160, 203); stroke-opacity: 1; fill: rgb(141, 160, 203); fill-opacity: 0.5;"/><g class="points"><path class="point" transform="translate(337.08,346.07)" d="M3,0A3,3 0 1,1 0,-3A3,3 0 0,1 3,0Z" style="opacity: 1; stroke-width: 0px; fill: rgb(141, 160, 203); fill-opacity: 1;"/><path class="point" transform="translate(324.19,345)" d="M3,0A3,3 0 1,1 0,-3A3,3 0 0,1 3,0Z" style="opacity: 1; stroke-width: 0px; fill: rgb(141, 160, 203); fill-opacity: 1;"/><path class="point" transform="translate(339.01,340.18)" d="M3,0A3,3 0 1,1 0,-3A3,3 0 0,1 3,0Z" style="opacity: 1; stroke-width: 0px; fill: rgb(141, 160, 203); fill-opacity: 1;"/><path class="point" transform="translate(323.76,322.5)" d="M3,0A3,3 0 1,1 0,-3A3,3 0 0,1 3,0Z" style="opacity: 1; stroke-width: 0px; fill: rgb(141, 160, 203); fill-opacity: 1;"/><path class="point" transform="translate(329.48,319.29)" d="M3,0A3,3 0 1,1 0,-3A3,3 0 0,1 3,0Z" style="opacity: 1; stroke-width: 0px; fill: rgb(141, 160, 203); fill-opacity: 1;"/><path class="point" transform="translate(334.56,315)" d="M3,0A3,3 0 1,1 0,-3A3,3 0 0,1 3,0Z" style="opacity: 1; stroke-width: 0px; fill: rgb(141, 160, 203); fill-opacity: 1;"/><path class="point" transform="translate(331.18,311.25)" d="M3,0A3,3 0 1,1 0,-3A3,3 0 0,1 3,0Z" style="opacity: 1; stroke-width: 0px; fill: rgb(141, 160, 203); fill-opacity: 1;"/><path class="point" transform="translate(333,291.96)" d="M3,0A3,3 0 1,1 0,-3A3,3 0 0,1 3,0Z" style="opacity: 1; stroke-width: 0px; fill: rgb(141, 160, 203); fill-opacity: 1;"/><path class="point" transform="translate(329.61,273.21)" d="M3,0A3,3 0 1,1 0,-3A3,3 0 0,1 3,0Z" style="opacity: 1; stroke-width: 0px; fill: rgb(141, 160, 203); fill-opacity: 1;"/><path class="point" transform="translate(327.31,236.25)" d="M3,0A3,3 0 1,1 0,-3A3,3 0 0,1 3,0Z" style="opacity: 1; stroke-width: 0px; fill: rgb(141, 160, 203); fill-opacity: 1;"/><path class="point" transform="translate(332.91,140.36)" d="M3,0A3,3 0 1,1 0,-3A3,3 0 0,1 3,0Z" style="opacity: 1; stroke-width: 0px; fill: rgb(141, 160, 203); fill-opacity: 1;"/><path class="point" transform="translate(329.57,134.46)" d="M3,0A3,3 0 1,1 0,-3A3,3 0 0,1 3,0Z" style="opacity: 1; stroke-width: 0px; fill: rgb(141, 160, 203); fill-opacity: 1;"/><path class="point" transform="translate(335.08,94.29)" d="M3,0A3,3 0 1,1 0,-3A3,3 0 0,1 3,0Z" style="opacity: 1; stroke-width: 0px; fill: rgb(141, 160, 203); fill-opacity: 1;"/><path class="point" transform="translate(326.04,86.79)" d="M3,0A3,3 0 1,1 0,-3A3,3 0 0,1 3,0Z" style="opacity: 1; stroke-width: 0px; fill: rgb(141, 160, 203); fill-opacity: 1;"/><path class="point" transform="translate(327.96,80.89)" d="M3,0A3,3 0 1,1 0,-3A3,3 0 0,1 3,0Z" style="opacity: 1; stroke-width: 0px; fill: rgb(141, 160, 203); fill-opacity: 1;"/><path class="point" transform="translate(338.32,80.89)" d="M3,0A3,3 0 1,1 0,-3A3,3 0 0,1 3,0Z" style="opacity: 1; stroke-width: 0px; fill: rgb(141, 160, 203); fill-opacity: 1;"/><path class="point" transform="translate(329.5,72.86)" d="M3,0A3,3 0 1,1 0,-3A3,3 0 0,1 3,0Z" style="opacity: 1; stroke-width: 0px; fill: rgb(141, 160, 203); fill-opacity: 1;"/><path class="point" transform="translate(323.79,71.25)" d="M3,0A3,3 0 1,1 0,-3A3,3 0 0,1 3,0Z" style="opacity: 1; stroke-width: 0px; fill: rgb(141, 160, 203); fill-opacity: 1;"/><path class="point" transform="translate(328.51,28.39)" d="M3,0A3,3 0 1,1 0,-3A3,3 0 0,1 3,0Z" style="opacity: 1; stroke-width: 0px; fill: rgb(141, 160, 203); fill-opacity: 1;"/><path class="point" transform="translate(331.22,26.79)" d="M3,0A3,3 0 1,1 0,-3A3,3 0 0,1 3,0Z" style="opacity: 1; stroke-width: 0px; fill: rgb(141, 160, 203); fill-opacity: 1;"/><path class="point" transform="translate(334.88,18.75)" d="M3,0A3,3 0 1,1 0,-3A3,3 0 0,1 3,0Z" style="opacity: 1; stroke-width: 0px; fill: rgb(141, 160, 203); fill-opacity: 1;"/></g></g><g class="trace boxes" style="opacity: 1;"><path class="box" d="M504.27,330.27H579.73M504.27,349.29H579.73V267.86H504.27ZM542,349.29V356.25M542,267.86V160.71M523.14,356.25H560.87M523.14,160.71H560.87" style="vector-effect: none; stroke-width: 2px; stroke: rgb(231, 138, 195); stroke-opacity: 1; fill: rgb(231, 138, 195); fill-opacity: 0.5;"/><g class="points"><path class="point" transform="translate(490.37,356.25)" d="M3,0A3,3 0 1,1 0,-3A3,3 0 0,1 3,0Z" style="opacity: 1; stroke-width: 0px; fill: rgb(231, 138, 195); fill-opacity: 1;"/><path class="point" transform="translate(478.73,355.18)" d="M3,0A3,3 0 1,1 0,-3A3,3 0 0,1 3,0Z" style="opacity: 1; stroke-width: 0px; fill: rgb(231, 138, 195); fill-opacity: 1;"/><path class="point" transform="translate(494.18,354.11)" d="M3,0A3,3 0 1,1 0,-3A3,3 0 0,1 3,0Z" style="opacity: 1; stroke-width: 0px; fill: rgb(231, 138, 195); fill-opacity: 1;"/><path class="point" transform="translate(479.71,350.89)" d="M3,0A3,3 0 1,1 0,-3A3,3 0 0,1 3,0Z" style="opacity: 1; stroke-width: 0px; fill: rgb(231, 138, 195); fill-opacity: 1;"/><path class="point" transform="translate(483.87,349.29)" d="M3,0A3,3 0 1,1 0,-3A3,3 0 0,1 3,0Z" style="opacity: 1; stroke-width: 0px; fill: rgb(231, 138, 195); fill-opacity: 1;"/><path class="point" transform="translate(487.76,349.29)" d="M3,0A3,3 0 1,1 0,-3A3,3 0 0,1 3,0Z" style="opacity: 1; stroke-width: 0px; fill: rgb(231, 138, 195); fill-opacity: 1;"/><path class="point" transform="translate(485.25,349.29)" d="M3,0A3,3 0 1,1 0,-3A3,3 0 0,1 3,0Z" style="opacity: 1; stroke-width: 0px; fill: rgb(231, 138, 195); fill-opacity: 1;"/><path class="point" transform="translate(486.52,349.29)" d="M3,0A3,3 0 1,1 0,-3A3,3 0 0,1 3,0Z" style="opacity: 1; stroke-width: 0px; fill: rgb(231, 138, 195); fill-opacity: 1;"/><path class="point" transform="translate(484.15,333.75)" d="M3,0A3,3 0 1,1 0,-3A3,3 0 0,1 3,0Z" style="opacity: 1; stroke-width: 0px; fill: rgb(231, 138, 195); fill-opacity: 1;"/><path class="point" transform="translate(482.57,326.79)" d="M3,0A3,3 0 1,1 0,-3A3,3 0 0,1 3,0Z" style="opacity: 1; stroke-width: 0px; fill: rgb(231, 138, 195); fill-opacity: 1;"/><path class="point" transform="translate(486.1,293.04)" d="M3,0A3,3 0 1,1 0,-3A3,3 0 0,1 3,0Z" style="opacity: 1; stroke-width: 0px; fill: rgb(231, 138, 195); fill-opacity: 1;"/><path class="point" transform="translate(484.68,280.18)" d="M3,0A3,3 0 1,1 0,-3A3,3 0 0,1 3,0Z" style="opacity: 1; stroke-width: 0px; fill: rgb(231, 138, 195); fill-opacity: 1;"/><path class="point" transform="translate(486.74,268.39)" d="M3,0A3,3 0 1,1 0,-3A3,3 0 0,1 3,0Z" style="opacity: 1; stroke-width: 0px; fill: rgb(231, 138, 195); fill-opacity: 1;"/><path class="point" transform="translate(483.4,267.86)" d="M3,0A3,3 0 1,1 0,-3A3,3 0 0,1 3,0Z" style="opacity: 1; stroke-width: 0px; fill: rgb(231, 138, 195); fill-opacity: 1;"/><path class="point" transform="translate(484.27,264.11)" d="M3,0A3,3 0 1,1 0,-3A3,3 0 0,1 3,0Z" style="opacity: 1; stroke-width: 0px; fill: rgb(231, 138, 195); fill-opacity: 1;"/><path class="point" transform="translate(487.15,160.71)" d="M3,0A3,3 0 1,1 0,-3A3,3 0 0,1 3,0Z" style="opacity: 1; stroke-width: 0px; fill: rgb(231, 138, 195); fill-opacity: 1;"/><path class="point" transform="translate(484.93,86.25)" d="M3,0A3,3 0 1,1 0,-3A3,3 0 0,1 3,0Z" style="opacity: 1; stroke-width: 0px; fill: rgb(231, 138, 195); fill-opacity: 1;"/><path class="point" transform="translate(483.89,63.21)" d="M3,0A3,3 0 1,1 0,-3A3,3 0 0,1 3,0Z" style="opacity: 1; stroke-width: 0px; fill: rgb(231, 138, 195); fill-opacity: 1;"/></g></g></g></g></g><g class="zerolinelayer-above"/><path class="xlines-above crisp" d="M0,0" style="fill: none;"/><path class="ylines-above crisp" d="M0,0" style="fill: none;"/><g class="overlines-above"/><g class="xaxislayer-above"><g class="xtick"><text text-anchor="middle" x="0" y="460" transform="translate(137,0)" style="font-family: Inter, 'Segoe UI', Arial, sans-serif; font-size: 12px; fill: rgb(229, 231, 235); fill-opacity: 1; white-space: pre;">TOML</text></g><g class="xtick"><text text-anchor="middle" x="0" y="460" transform="translate(291,0)" style="font-family: Inter, 'Segoe UI', Arial, sans-serif; font-size: 12px; fill: rgb(229, 231, 235); fill-opacity: 1; white-space: pre;">XML</text></g><g class="xtick"><text text-anchor="middle" x="0" y="460" transform="translate(445,0)" style="font-family: Inter, 'Segoe UI', Arial, sans-serif; font-size: 12px; fill: rgb(229, 231, 235); fill-opacity: 1; white-space: pre;">YAML</text></g><g class="xtick"><text text-anchor="middle" x="0" y="460" transform="translate(599,0)" style="font-family: Inter, 'Segoe UI', Arial, sans-serif; font-size: 12px; fill: rgb(229, 231, 235); fill-opacity: 1; white-space: pre;">TONL</text></g></g><g class="yaxislayer-above"><g class="ytick"><text text-anchor="end" x="56" y="4.199999999999999" transform="translate(0,428.25)" style="font-family: Inter, 'Segoe UI', Arial, sans-serif; font-size: 12px; fill: rgb(229, 231, 235); fill-opacity: 1; white-space: pre;">0</text></g><g class="ytick"><text text-anchor="end" x="56" y="4.199999999999999" style="font-family: Inter, 'Segoe UI', Arial, sans-serif; font-size: 12px; fill: rgb(229, 231, 235); fill-opacity: 1; white-space: pre;" transform="translate(0,374.68)">50</text></g><g class="ytick"><text text-anchor="end" x="56" y="4.199999999999999" style="font-family: Inter, 'Segoe UI', Arial, sans-serif; font-size: 12px; fill: rgb(229, 231, 235); fill-opacity: 1; white-space: pre;" transform="translate(0,321.11)">100</text></g><g class="ytick"><text text-anchor="end" x="56" y="4.199999999999999" style="font-family: Inter, 'Segoe UI', Arial, sans-serif; font-size: 12px; fill: rgb(229, 231, 235); fill-opacity: 1; white-space: pre;" transform="translate(0,267.53999999999996)">150</text></g><g class="ytick"><text text-anchor="end" x="56" y="4.199999999999999" style="font-family: Inter, 'Segoe UI', Arial, sans-serif; font-size: 12px; fill: rgb(229, 231, 235); fill-opacity: 1; white-space: pre;" transform="translate(0,213.96)">200</text></g><g class="ytick"><text text-anchor="end" x="56" y="4.199999999999999" style="font-family: Inter, 'Segoe UI', Arial, sans-serif; font-size: 12px; fill: rgb(229, 231, 235); fill-opacity: 1; white-space: pre;" transform="translate(0,160.39)">250</text></g><g class="ytick"><text text-anchor="end" x="56" y="4.199999999999999" style="font-family: Inter, 'Segoe UI', Arial, sans-serif; font-size: 12px; fill: rgb(229, 231, 235); fill-opacity: 1; white-space: pre;" transform="translate(0,106.82)">300</text></g></g><g class="overaxes-above"/></g></g><g class="polarlayer"/><g class="smithlayer"/><g class="ternarylayer"/><g class="geolayer"/><g class="funnelarealayer"/><g class="pielayer"/><g class="iciclelayer"/><g class="treemaplayer"/><g class="sunburstlayer"/><g class="glimages"/><defs id="topdefs-57a9ad"><g class="clips"/><clipPath id="legend57a9ad"><rect width="399" height="29" x="0" y="0"/></clipPath></defs><g class="layer-above"><g class="imagelayer"/><g class="shapelayer"/></g><g class="infolayer"><g class="legend" pointer-events="all" transform="translate(277,35.5)"><rect class="bg" shape-rendering="crispEdges" style="stroke: rgb(68, 68, 68); stroke-opacity: 1; fill: rgb(11, 16, 32); fill-opacity: 1; stroke-width: 0px;" width="399" height="29" x="0" y="0"/><g class="scrollbox" transform="" clip-path="url(#legend57a9ad)"><text class="legendtitletext" text-anchor="start" x="2" y="18.2" style="font-family: Inter, 'Segoe UI', Arial, sans-serif; font-size: 14px; fill: rgb(229, 231, 235); fill-opacity: 1; white-space: pre; opacity: 1;">output_format</text><g class="groups" transform=""><g class="traces" transform="translate(99.2119140625,14.5)" style="opacity: 1;"><text class="legendtext" text-anchor="start" x="40" y="4.680000000000001" style="font-family: Inter, 'Segoe UI', Arial, sans-serif; font-size: 12px; fill: rgb(229, 231, 235); fill-opacity: 1; white-space: pre;">TOML</text><g class="layers" style="opacity: 1;"><g class="legendfill"/><g class="legendlines"/><g class="legendsymbols"><g class="legendpoints"><path class="legendbox" d="M6,6H-6V-6H6Z" transform="translate(20,0)" style="stroke-width: 2px; fill: rgb(102, 194, 165); fill-opacity: 0.5; stroke: rgb(102, 194, 165); stroke-opacity: 1;"/></g></g></g><rect class="legendtoggle" x="0" y="-9.5" width="75.052734375" height="19" style="fill: rgb(0, 0, 0); fill-opacity: 0;"/></g></g><g class="groups" transform="translate(77.552734375,0)"><g class="traces" transform="translate(99.2119140625,14.5)" style="opacity: 1;"><text class="legendtext" text-anchor="start" x="40" y="4.680000000000001" style="font-family: Inter, 'Segoe UI', Arial, sans-serif; font-size: 12px; fill: rgb(229, 231, 235); fill-opacity: 1; white-space: pre;">XML</text><g class="layers" style="opacity: 1;"><g class="legendfill"/><g class="legendlines"/><g class="legendsymbols"><g class="legendpoints"><path class="legendbox" d="M6,6H-6V-6H6Z" transform="translate(20,0)" style="stroke-width: 2px; fill: rgb(252, 141, 98); fill-opacity: 0.5; stroke: rgb(252, 141, 98); stroke-opacity: 1;"/></g></g></g><rect class="legendtoggle" x="0" y="-9.5" width="67.353515625" height="19" style="fill: rgb(0, 0, 0); fill-opacity: 0;"/></g></g><g class="groups" transform="translate(147.40625,0)"><g class="traces" transform="translate(99.2119140625,14.5)" style="opacity: 1;"><text class="legendtext" text-anchor="start" x="40" y="4.680000000000001" style="font-family: Inter, 'Segoe UI', Arial, sans-serif; font-size: 12px; fill: rgb(229, 231, 235); fill-opacity: 1; white-space: pre;">YAML</text><g class="layers" style="opacity: 1;"><g class="legendfill"/><g class="legendlines"/><g class="legendsymbols"><g class="legendpoints"><path class="legendbox" d="M6,6H-6V-6H6Z" transform="translate(20,0)" style="stroke-width: 2px; fill: rgb(141, 160, 203); fill-opacity: 0.5; stroke: rgb(141, 160, 203); stroke-opacity: 1;"/></g></g></g><rect class="legendtoggle" x="0" y="-9.5" width="73.7109375" height="19" style="fill: rgb(0, 0, 0); fill-opacity: 0;"/></g></g><g class="groups" transform="translate(223.6171875,0)"><g class="traces" transform="translate(99.2119140625,14.5)" style="opacity: 1;"><text class="legendtext" text-anchor="start" x="40" y="4.680000000000001" style="font-family: Inter, 'Segoe UI', Arial, sans-serif; font-size: 12px; fill: rgb(229, 231, 235); fill-opacity: 1; white-space: pre;">TONL</text><g class="layers" style="opacity: 1;"><g class="legendfill"/><g class="legendlines"/><g class="legendsymbols"><g class="legendpoints"><path class="legendbox" d="M6,6H-6V-6H6Z" transform="translate(20,0)" style="stroke-width: 2px; fill: rgb(231, 138, 195); fill-opacity: 0.5; stroke: rgb(231, 138, 195); stroke-opacity: 1;"/></g></g></g><rect class="legendtoggle" x="0" y="-9.5" width="73.25390625" height="19" style="fill: rgb(0, 0, 0); fill-opacity: 0;"/></g></g></g><rect class="scrollbar" rx="20" ry="3" width="0" height="0" style="fill: rgb(128, 139, 164); fill-opacity: 1;" x="0" y="0"/></g><g class="g-gtitle"><text class="gtitle" x="35" y="36" text-anchor="start" dy="0em" style="opacity: 1; font-family: Inter, 'Segoe UI', Arial, sans-serif; font-size: 17px; fill: rgb(229, 231, 235); fill-opacity: 1; white-space: pre;">avg_gpu_power_mw grouped by output format</text></g><g class="g-xtitle"><text class="xtitle" x="366.5" y="487.3" text-anchor="middle" style="opacity: 1; font-family: Inter, 'Segoe UI', Arial, sans-serif; font-size: 14px; fill: rgb(229, 231, 235); fill-opacity: 1; white-space: pre;">output_format</text></g><g class="g-ytitle"><text class="ytitle" transform="rotate(-90,17.19375,259.5)" x="17.19375" y="259.5" text-anchor="middle" style="opacity: 1; font-family: Inter, 'Segoe UI', Arial, sans-serif; font-size: 14px; fill: rgb(229, 231, 235); fill-opacity: 1; white-space: pre;">avg_gpu_power_mw</text></g></g></svg>